<svg width="17" height="18" viewBox="0 0 17 18" fill="none" xmlns="http://www.w3.org/2000/svg">
<g id="a" clip-path="url(#clip0_3237_2065)">
<path id="Vector" opacity="0.93" d="M13.3853 14.62C13.3853 14.62 13.3953 14.62 13.4053 14.61C13.4053 14.61 13.4053 14.62 13.3953 14.62H13.3853Z" fill="#EF3A42"/>
<path id="Vector_2" opacity="0.93" d="M14.1753 17.67C14.1753 17.67 14.1953 17.68 14.2053 17.69C14.2053 17.69 14.1953 17.69 14.1853 17.68L14.1753 17.67Z" fill="#EF3A42"/>
<path id="Vector_3" opacity="0.93" d="M4.85498 15.36C4.85498 15.36 4.85498 15.36 4.86498 15.37V15.36H4.85498Z" fill="#EF3A42"/>
<path id="Vector_4" d="M16.9054 10.9701C16.9254 10.9201 16.9054 10.8601 16.8754 10.8101C16.8654 10.7901 16.8454 10.7701 16.8354 10.7401C16.8254 10.7201 16.8154 10.7101 16.8054 10.6901C16.7754 10.6401 16.7554 10.6001 16.7354 10.5501C16.7354 10.5101 16.7254 10.4701 16.7154 10.4301C16.6854 10.3001 16.6454 10.1801 16.6054 10.0601C16.5454 9.88006 16.4754 9.71006 16.3854 9.54006C16.3554 9.42006 16.3254 9.30006 16.2854 9.18006C16.2554 9.06006 16.2154 8.95006 16.1754 8.83006C16.1354 8.71006 16.1054 8.58006 16.0854 8.45006C16.0554 8.19006 16.0654 7.92006 16.0654 7.66006C16.0654 7.42006 16.0654 7.18006 16.1054 6.94006C16.1054 6.96006 16.1054 6.97006 16.1054 6.98006C16.1354 6.79006 16.1654 6.59006 16.1954 6.40006C16.1954 6.37006 16.2054 6.34006 16.2154 6.31006C16.2354 6.24006 16.2454 6.18006 16.2654 6.11006C16.3054 5.96006 16.3454 5.80006 16.3954 5.64006C16.4454 5.48006 16.4854 5.33006 16.5354 5.17006C16.6254 4.89006 16.7254 4.61006 16.8254 4.33006C16.8254 4.32006 16.8254 4.31006 16.8254 4.30006C16.8554 4.27006 16.8654 4.24006 16.8654 4.19006C16.8654 4.12006 16.8154 4.04006 16.7454 4.03006C16.7254 4.03006 16.7054 4.03006 16.6854 4.03006C16.6254 4.03006 16.5654 4.05006 16.5154 4.07006C16.4654 4.03006 16.4154 4.00006 16.3554 4.00006C16.2054 3.98006 16.0654 3.99006 15.9154 3.99006C15.7754 3.99006 15.6254 3.99006 15.4854 3.97006C15.3754 3.92006 15.2654 3.88006 15.1554 3.83006C14.9954 3.76006 14.8454 3.69006 14.6954 3.59006C14.6354 3.54006 14.5854 3.49006 14.5354 3.44006C14.4754 3.36006 14.4254 3.27006 14.3654 3.18006C14.3554 3.07006 14.3454 2.97006 14.3354 2.86006C14.3354 2.82006 14.3154 2.78006 14.2854 2.75006C14.2854 2.75006 14.2854 2.74006 14.2854 2.73006C14.2154 2.66006 14.1154 2.66006 14.0454 2.73006C14.0054 2.77006 13.9654 2.80006 13.9154 2.83006C13.9254 2.83006 13.9354 2.81006 13.9554 2.81006C13.8154 2.91006 13.6654 3.01006 13.5154 3.11006C13.3154 3.24006 13.1154 3.38006 12.9054 3.50006C12.6954 3.63006 12.4854 3.75006 12.2654 3.86006C12.1754 3.90006 12.0954 3.95006 12.0054 3.99006C11.9054 4.03006 11.8154 4.07006 11.7254 4.10006C11.7054 4.10006 11.6954 4.11006 11.6854 4.12006C11.5854 4.16006 11.4854 4.19006 11.3754 4.22006C11.2754 4.25006 11.1654 4.27006 11.0654 4.28006C10.9154 4.29006 10.7654 4.28006 10.6254 4.27006C10.5454 4.27006 10.4754 4.26006 10.4054 4.24006C10.3554 4.24006 10.3054 4.23006 10.2554 4.22006C10.2554 4.22006 10.2454 4.22006 10.2354 4.22006C10.1654 4.21006 10.0954 4.19006 10.0354 4.15006C9.95539 4.11006 9.88539 4.07006 9.81539 4.01006C9.65539 3.88006 9.49539 3.72006 9.37539 3.56006C9.31539 3.47006 9.26539 3.38006 9.22539 3.29006C9.18539 3.18006 9.14539 3.07006 9.11539 2.96006C9.07539 2.82006 9.05539 2.68006 9.03539 2.54006C9.03539 2.46006 9.03539 2.39006 9.04539 2.31006C9.06539 2.23006 9.08539 2.15006 9.11539 2.08006C9.12539 2.05006 9.13539 2.03006 9.14539 2.00006C9.16539 1.94006 9.15539 1.89006 9.13539 1.84006C9.10539 1.77006 9.04539 1.73006 8.97539 1.73006C8.94539 1.73006 8.91539 1.74006 8.88539 1.74006H8.85539C8.73539 1.71006 8.61539 1.67006 8.49539 1.63006C8.43539 1.61006 8.36539 1.59006 8.30539 1.59006C8.24539 1.59006 8.18539 1.58006 8.11539 1.57006C8.07539 1.57006 8.04539 1.55006 8.01539 1.54006C7.96539 1.52006 7.90539 1.49006 7.85539 1.47006C7.76539 1.44006 7.66539 1.42006 7.58539 1.38006C7.53539 1.35006 7.48539 1.32006 7.43539 1.29006C7.35539 1.25006 7.27539 1.20006 7.18539 1.16006C7.08539 1.11006 6.99539 1.07006 6.89539 1.02006C6.80539 0.970059 6.71539 0.920059 6.62539 0.870059C6.44539 0.760059 6.26539 0.680059 6.08539 0.570059C5.91539 0.470059 5.72539 0.400059 5.54539 0.320059C5.54539 0.320059 5.53539 0.320059 5.52539 0.320059C5.43539 0.280059 5.35539 0.230059 5.28539 0.170059C5.23539 0.120059 5.17539 0.0600586 5.09539 0.0600586C5.06539 0.0600586 5.03539 0.0600586 5.00539 0.0800586C4.99539 0.0800586 4.98539 0.0700586 4.96539 0.0600586C4.94539 0.0600586 4.93539 0.0600586 4.91539 0.0600586C4.88539 0.0600586 4.85539 0.0600586 4.83539 0.0800586C4.79539 0.100059 4.77539 0.130059 4.75539 0.180059C4.66539 0.380059 4.58539 0.590059 4.49539 0.780059C4.41539 0.950059 4.33539 1.12006 4.25539 1.28006C4.16539 1.46006 4.08539 1.65006 3.99539 1.83006C3.92539 1.99006 3.84539 2.15006 3.75539 2.30006C3.71539 2.37006 3.67539 2.44006 3.63539 2.50006C3.61539 2.53006 3.59539 2.56006 3.57539 2.58006C3.52539 2.66006 3.47539 2.73006 3.42539 2.81006C3.34539 2.93006 3.26539 3.05006 3.18539 3.17006C3.12539 3.26006 3.06539 3.35006 2.99539 3.43006C2.87539 3.56006 2.74539 3.69006 2.62539 3.82006C2.57539 3.87006 2.52539 3.93006 2.47539 3.98006C2.43539 4.03006 2.38539 4.07006 2.34539 4.12006C2.26539 4.20006 2.19539 4.29006 2.11539 4.37006C2.06539 4.42006 1.99539 4.46006 1.97539 4.53006C1.96539 4.56006 1.96539 4.60006 1.97539 4.63006C1.99539 4.63006 2.02539 4.62006 2.04539 4.61006C2.06539 4.67006 2.10539 4.73006 2.15539 4.77006C2.25539 4.84006 2.37539 4.89006 2.48539 4.92006C2.50539 4.92006 2.53539 4.92006 2.55539 4.93006C2.61539 4.99006 2.68539 5.05006 2.74539 5.11006C2.80539 5.16006 2.86539 5.21006 2.92539 5.26006C2.96539 5.29006 3.00539 5.33006 3.04539 5.37006C3.08539 5.43006 3.12539 5.49006 3.15539 5.56006C3.21539 5.67006 3.26539 5.78006 3.30539 5.90006C3.36539 6.06006 3.40539 6.23006 3.42539 6.40006C3.44539 6.61006 3.40539 6.82006 3.37539 7.03006C3.35539 7.15006 3.32539 7.27006 3.28539 7.38006C3.28539 7.38006 3.28539 7.38006 3.28539 7.40006C3.15539 7.69006 2.97539 7.95006 2.78539 8.20006C2.71539 8.29006 2.63539 8.38006 2.54539 8.45006C2.48539 8.49006 2.42539 8.52006 2.35539 8.55006C2.26539 8.58006 2.16539 8.61006 2.06539 8.63006C2.03539 8.64006 2.00539 8.64006 1.96539 8.65006C1.92539 8.65006 1.88539 8.65006 1.83539 8.65006C1.84539 8.65006 1.86539 8.65006 1.87539 8.65006C1.81539 8.65006 1.74539 8.65006 1.68539 8.67006C1.63539 8.68006 1.59539 8.69006 1.54539 8.70006C1.49539 8.70006 1.44539 8.71006 1.39539 8.73006C1.33539 8.74006 1.26539 8.75006 1.20539 8.76006C1.14539 8.78006 1.08539 8.80006 1.03539 8.83006C0.98539 8.85006 0.93539 8.87006 0.88539 8.90006C0.85539 8.92006 0.82539 8.94006 0.79539 8.96006H0.77539C0.69539 8.97006 0.61539 8.99006 0.53539 9.01006C0.46539 9.03006 0.39539 9.05006 0.32539 9.06006C0.27539 9.07006 0.21539 9.08006 0.16539 9.11006C0.0853902 9.15006 0.0453902 9.25006 0.0753902 9.33006C0.0953902 9.37006 0.11539 9.41006 0.14539 9.43006C0.17539 9.46006 0.21539 9.48006 0.25539 9.51006C0.25539 9.51006 0.27539 9.52006 0.28539 9.53006C0.31539 9.56006 0.34539 9.60006 0.37539 9.63006C0.32539 9.71006 0.35539 9.81006 0.43539 9.86006C0.50539 9.90006 0.56539 9.95006 0.63539 9.99006C0.67539 10.0601 0.70539 10.1401 0.73539 10.2101C0.77539 10.3101 0.80539 10.4101 0.83539 10.5101C0.83539 10.5101 0.83539 10.5201 0.83539 10.5301C0.83539 10.5501 0.84539 10.5801 0.85539 10.6001C0.87539 10.7601 0.87539 10.9301 0.88539 11.0901C0.88539 11.2501 0.88539 11.4101 0.86539 11.5701C0.84539 11.6901 0.81539 11.8001 0.76539 11.9101C0.72539 12.0001 0.67539 12.0801 0.62539 12.1701C0.56539 12.2501 0.48539 12.3501 0.50539 12.4501C0.47539 12.4901 0.45539 12.5301 0.43539 12.5701C0.40539 12.6301 0.39539 12.6801 0.38539 12.7501C0.36539 12.8801 0.47539 12.9801 0.57539 13.0401C0.66539 13.0901 0.77539 13.1301 0.87539 13.1501C1.00539 13.1801 1.14539 13.2001 1.27539 13.2201C1.41539 13.2401 1.56539 13.2601 1.70539 13.2901C1.83539 13.3201 1.96539 13.3701 2.08539 13.4201C2.26539 13.5001 2.44539 13.5901 2.62539 13.6701C2.71539 13.7101 2.81539 13.7501 2.89539 13.8001C2.97539 13.8501 3.05539 13.8901 3.12539 13.9501C3.23539 14.0401 3.34539 14.1401 3.45539 14.2301C3.55539 14.3201 3.66539 14.4101 3.77539 14.5001C3.89539 14.6001 4.00539 14.7101 4.13539 14.8001C4.24539 14.8801 4.35539 14.9501 4.46539 15.0301C4.59539 15.1401 4.71539 15.2701 4.81539 15.4001C4.81539 15.4001 4.81539 15.4101 4.82539 15.4201C4.82539 15.4201 4.82539 15.4301 4.83539 15.4401C4.83539 15.4401 4.83539 15.4401 4.82539 15.4301C4.92539 15.5601 5.01539 15.7001 5.09539 15.8401C5.17539 15.9601 5.24539 16.0801 5.33539 16.1901C5.33539 16.1901 5.34539 16.2001 5.35539 16.2101C5.35539 16.2401 5.37539 16.2801 5.38539 16.3101C5.42539 16.4301 5.46539 16.5601 5.51539 16.6701C5.53539 16.7101 5.55539 16.7401 5.58539 16.7801C5.62539 16.8301 5.71539 16.8501 5.77539 16.8301C5.85539 16.8101 5.92539 16.7501 5.99539 16.6901C6.11539 16.6001 6.24539 16.5101 6.37539 16.4201C6.53539 16.3201 6.69539 16.2201 6.87539 16.1401C6.90539 16.1301 6.94539 16.1101 6.97539 16.1001C7.17539 16.0901 7.36539 16.0501 7.56539 16.0301C7.55539 16.0301 7.53539 16.0301 7.52539 16.0301C7.58539 16.0301 7.64539 16.0101 7.71539 16.0101C7.83539 16.0101 7.96539 16.0201 8.08539 16.0401C8.25539 16.0701 8.42539 16.1101 8.59539 16.1701C8.61539 16.1801 8.64539 16.1901 8.66539 16.2001C8.69539 16.2201 8.71539 16.2401 8.74539 16.2701C8.79539 16.3301 8.85539 16.4001 8.88539 16.4801C8.88539 16.4901 8.89539 16.5101 8.89539 16.5201C8.96539 16.5401 9.04539 16.5301 9.10539 16.4901C9.16539 16.4501 9.21539 16.4001 9.26539 16.3501C9.27539 16.3501 9.28539 16.3501 9.29539 16.3501C9.32539 16.3101 9.35539 16.2801 9.39539 16.2501C9.43539 16.2101 9.47539 16.1701 9.51539 16.1401C9.51539 16.1301 9.52539 16.1201 9.53539 16.1001C9.56539 16.0701 9.60539 16.0401 9.63539 16.0101C9.67539 15.9801 9.72539 15.9601 9.76539 15.9301C9.76539 15.9301 9.77539 15.9201 9.78539 15.9101C9.82539 15.8801 9.87539 15.8501 9.91539 15.8201C9.99539 15.7801 10.0654 15.7301 10.1554 15.7201C10.2054 15.7001 10.2554 15.6801 10.3054 15.6501C10.3654 15.6201 10.4254 15.6001 10.4854 15.5701C10.5954 15.5201 10.7254 15.4801 10.8454 15.4501C10.9554 15.4101 11.0854 15.3801 11.2054 15.3701C11.2554 15.3701 11.3154 15.3701 11.3654 15.3701C11.4454 15.3701 11.5254 15.3701 11.6154 15.3901C11.6854 15.4001 11.7554 15.4101 11.8254 15.4101C11.8254 15.4101 11.8254 15.4101 11.8354 15.4101C11.8854 15.4901 11.9254 15.5701 11.9854 15.6501C12.0754 15.7601 12.1754 15.8701 12.2754 15.9701C12.3754 16.0801 12.4554 16.1901 12.5554 16.3001C12.6054 16.3601 12.6754 16.4101 12.7354 16.4601C12.7854 16.5001 12.8454 16.5501 12.8954 16.6001C13.0154 16.7201 13.1154 16.8501 13.2354 16.9601C13.2854 17.0001 13.3354 17.0401 13.3854 17.0801C13.4354 17.1101 13.4854 17.1501 13.5354 17.1901C13.6154 17.2701 13.6854 17.3601 13.7654 17.4301C13.8254 17.4801 13.8854 17.5301 13.9454 17.5901C13.9954 17.6301 14.0554 17.6601 14.1154 17.7001C14.1154 17.7001 14.1354 17.7001 14.1354 17.7101C14.1754 17.7301 14.2054 17.7501 14.2454 17.7601C14.2954 17.7701 14.3454 17.7601 14.3954 17.7501C14.4454 17.7401 14.4954 17.7101 14.5454 17.6801C14.5954 17.6501 14.6254 17.6201 14.6754 17.5901C14.7354 17.5601 14.7954 17.5301 14.8554 17.4801C14.9054 17.4501 14.9454 17.4101 14.9854 17.3801C15.0554 17.3301 15.1154 17.2701 15.1754 17.2101C15.2154 17.1701 15.2454 17.1101 15.2754 17.0701C15.2754 17.0701 15.2954 17.0601 15.2954 17.0501C15.3254 17.0301 15.3454 17.0001 15.3654 16.9701C15.3854 16.9201 15.3854 16.8501 15.3654 16.8001C15.3654 16.8001 15.3554 16.7901 15.3454 16.7801C15.3554 16.7401 15.3554 16.7001 15.3454 16.6601C15.3054 16.5401 15.1754 16.4701 15.0654 16.4201C15.0154 16.3901 14.9554 16.3801 14.9054 16.3701C14.8854 16.3701 14.8654 16.3701 14.8554 16.3701C14.8354 16.3501 14.8154 16.3401 14.7854 16.3201C14.7254 16.2801 14.6654 16.2501 14.5954 16.2201C14.5554 16.2101 14.5154 16.1901 14.4854 16.1701C14.2654 16.0301 14.0454 15.8901 13.8454 15.7201C13.7454 15.6301 13.6554 15.5401 13.5554 15.4501C13.4554 15.3601 13.3554 15.2801 13.2554 15.1901C13.1954 15.1301 13.1454 15.0601 13.0954 14.9901C13.1154 14.9401 13.1354 14.9001 13.1554 14.8601C13.1654 14.8401 13.1754 14.8201 13.1854 14.8101C13.1854 14.8101 13.1854 14.8101 13.1854 14.8001C13.2254 14.7501 13.2754 14.7001 13.3254 14.6601C13.3254 14.6601 13.3254 14.6601 13.3154 14.6601C13.3154 14.6601 13.3354 14.6501 13.3354 14.6401C13.3354 14.6401 13.3354 14.6401 13.3454 14.6401C13.4154 14.5901 13.4754 14.5501 13.5454 14.5001C13.6154 14.4501 13.6954 14.4101 13.7854 14.3701C13.9154 14.3101 14.0454 14.2201 14.1854 14.1601C14.2654 14.1301 14.3554 14.1101 14.4354 14.0801C14.5254 14.0501 14.6154 14.0301 14.6954 13.9901C14.7154 13.9801 14.7454 13.9701 14.7654 13.9501C14.8054 13.9301 14.8354 13.9001 14.8554 13.8701C14.8954 13.8101 14.8854 13.7401 14.8754 13.6801C14.8754 13.6201 14.8754 13.5701 14.8754 13.5101C14.8754 13.4401 14.8854 13.3701 14.8954 13.3001C14.9254 13.0701 14.9854 12.8401 15.0754 12.6201C15.1154 12.5101 15.1754 12.4101 15.2354 12.3201C15.3154 12.2201 15.4054 12.1401 15.4954 12.0501C15.5554 11.9901 15.6154 11.9301 15.6854 11.8701C15.7254 11.8701 15.7654 11.8501 15.7954 11.8201C15.8954 11.7401 15.9854 11.6501 16.0854 11.5701C16.1154 11.5501 16.1454 11.5301 16.1754 11.5101C16.2454 11.4801 16.3154 11.4701 16.3854 11.4601C16.4354 11.4601 16.4854 11.4601 16.5354 11.4401C16.5654 11.4401 16.5954 11.4101 16.6154 11.3901C16.6554 11.3901 16.7054 11.3701 16.7354 11.3401C16.7654 11.3101 16.7854 11.2701 16.7854 11.2201C16.7854 11.1701 16.7654 11.1401 16.7454 11.1101C16.7654 11.1101 16.7754 11.0901 16.7854 11.0801C16.8154 11.0501 16.8154 11.0301 16.8354 11.0001L16.9054 10.9701ZM14.0454 12.5901C14.0154 12.6601 13.9854 12.7201 13.9554 12.7901C14.0154 12.5801 14.0754 12.3701 14.1354 12.1501C14.1354 12.1601 14.1354 12.1801 14.1254 12.1901C14.1754 12.0001 14.2354 11.8201 14.2854 11.6301C14.2854 11.6801 14.2754 11.7201 14.2754 11.7701V11.8701C14.2754 11.8701 14.2854 11.9201 14.2954 11.9401C14.2954 11.9501 14.3054 11.9601 14.3154 11.9701C14.3054 12.0001 14.2854 12.0201 14.2754 12.0501C14.1954 12.2301 14.1154 12.4101 14.0354 12.5901H14.0454ZM5.53539 0.630059C5.53539 0.630059 5.46539 0.670059 5.44539 0.700059C5.45539 0.670059 5.47539 0.640059 5.48539 0.610059C5.50539 0.610059 5.51539 0.620059 5.53539 0.630059ZM2.44539 11.8901C2.44539 11.8901 2.47539 11.9401 2.50539 11.9701C2.57539 12.0201 2.66539 12.0101 2.71539 11.9601C2.71539 11.9801 2.71539 12.0001 2.71539 12.0301C2.71539 12.0801 2.71539 12.1301 2.71539 12.1801C2.66539 12.1701 2.62539 12.1601 2.57539 12.1501C2.54539 12.1501 2.52539 12.1401 2.50539 12.1301C2.46539 12.1101 2.42539 12.0901 2.38539 12.0701C2.36539 12.0601 2.34539 12.0501 2.32539 12.0401C2.34539 12.0001 2.35539 11.9501 2.37539 11.9001C2.40539 11.8201 2.43539 11.7401 2.46539 11.6601C2.46539 11.7001 2.45539 11.7401 2.44539 11.7801C2.44539 11.8201 2.44539 11.8601 2.44539 11.9001V11.8901ZM5.79539 1.07006C5.79539 1.07006 5.75539 1.07006 5.74539 1.09006C5.74539 1.09006 5.74539 1.10006 5.73539 1.11006C5.73539 1.09006 5.74539 1.06006 5.75539 1.04006C5.77539 1.05006 5.78539 1.06006 5.80539 1.07006H5.79539ZM7.26539 1.73006C7.26539 1.73006 7.32539 1.77006 7.35539 1.78006C7.31539 1.79006 7.27539 1.81006 7.23539 1.85006C7.23539 1.85006 7.22539 1.87006 7.21539 1.88006C7.21539 1.88006 7.21539 1.87006 7.21539 1.86006C7.19539 1.79006 7.14539 1.72006 7.10539 1.65006C7.16539 1.68006 7.23539 1.72006 7.29539 1.76006C7.28539 1.76006 7.27539 1.74006 7.25539 1.74006L7.26539 1.73006ZM8.15539 2.27006C8.15539 2.27006 8.15539 2.27006 8.15539 2.26006C8.15539 2.26006 8.15539 2.26006 8.15539 2.27006ZM8.30539 2.48006C8.30539 2.48006 8.30539 2.46006 8.31539 2.46006C8.31539 2.46006 8.31539 2.48006 8.30539 2.48006ZM9.51539 4.30006C9.51539 4.30006 9.50539 4.30006 9.49539 4.30006H9.51539ZM9.51539 4.28006H9.52539C9.52539 4.28006 9.51539 4.28006 9.50539 4.28006H9.51539ZM9.58539 5.00006C9.58539 5.00006 9.62539 5.00006 9.64539 5.00006C9.64539 5.01006 9.63539 5.03006 9.62539 5.04006C9.61539 5.08006 9.60539 5.12006 9.62539 5.17006C9.62539 5.19006 9.64539 5.21006 9.66539 5.23006C9.66539 5.23006 9.66539 5.25006 9.66539 5.26006C9.64539 5.29006 9.62539 5.31006 9.61539 5.35006C9.60539 5.37006 9.59539 5.39006 9.58539 5.42006C9.58539 5.40006 9.58539 5.38006 9.58539 5.37006C9.58539 5.34006 9.58539 5.31006 9.58539 5.28006C9.56539 5.25006 9.53539 5.22006 9.50539 5.20006C9.54539 5.13006 9.57539 5.07006 9.60539 5.00006H9.58539ZM10.1854 4.90006C10.1854 4.90006 10.2154 4.88006 10.2254 4.87006C10.2254 4.97006 10.2254 5.06006 10.2554 5.16006C10.2654 5.22006 10.2954 5.27006 10.3454 5.30006C10.3354 5.38006 10.3154 5.46006 10.3054 5.54006C10.3054 5.56006 10.3054 5.58006 10.3054 5.60006C10.2854 5.57006 10.2554 5.54006 10.2254 5.53006C10.1554 5.50006 10.0754 5.53006 10.0254 5.58006C9.98539 5.63006 9.95539 5.68006 9.92539 5.73006C9.90539 5.73006 9.89539 5.73006 9.87539 5.73006C9.89539 5.67006 9.90539 5.61006 9.92539 5.54006C9.97539 5.36006 10.0154 5.18006 10.0654 5.00006C10.0654 4.98006 10.0754 4.96006 10.0854 4.93006C10.1154 4.93006 10.1554 4.91006 10.1854 4.89006V4.90006ZM10.7054 4.93006C10.7054 4.93006 10.7354 4.91006 10.7454 4.90006C10.7454 4.94006 10.7454 4.98006 10.7454 5.02006C10.7454 5.09006 10.7254 5.16006 10.7254 5.24006C10.7254 5.27006 10.7054 5.30006 10.6954 5.33006C10.6954 5.35006 10.6854 5.38006 10.6754 5.40006C10.6754 5.40006 10.6754 5.40006 10.6754 5.41006C10.6854 5.34006 10.7054 5.27006 10.7054 5.19006C10.7054 5.12006 10.7254 5.06006 10.7254 4.99006C10.7254 4.97006 10.7254 4.94006 10.7154 4.92006L10.7054 4.93006ZM11.7054 4.76006C11.6754 4.81006 11.6354 4.86006 11.6054 4.91006C11.6054 4.87006 11.6254 4.82006 11.6254 4.78006C11.6554 4.78006 11.6754 4.76006 11.7054 4.75006V4.76006ZM8.81539 15.3301C8.81539 15.3301 8.81539 15.2801 8.82539 15.2601C8.82539 15.2201 8.83539 15.1801 8.84539 15.1501C8.84539 15.1701 8.84539 15.1901 8.84539 15.2201C8.83539 15.2601 8.82539 15.3001 8.81539 15.3401V15.3301ZM3.74539 4.64006C3.76539 4.58006 3.78539 4.52006 3.81539 4.45006C3.82539 4.43006 3.84539 4.41006 3.85539 4.39006C3.80539 4.61006 3.76539 4.83006 3.71539 5.05006C3.70539 5.03006 3.69539 5.02006 3.68539 5.00006C3.66539 4.98006 3.64539 4.96006 3.62539 4.93006C3.66539 4.83006 3.70539 4.73006 3.73539 4.63006L3.74539 4.64006ZM9.07539 3.97006C9.07539 3.97006 9.09539 4.00006 9.10539 4.02006C9.13539 4.07006 9.16539 4.10006 9.20539 4.14006C9.18539 4.17006 9.16539 4.20006 9.15539 4.24006C9.12539 4.32006 9.12539 4.40006 9.14539 4.49006C9.13539 4.49006 9.12539 4.49006 9.11539 4.49006C9.09539 4.49006 9.08539 4.49006 9.06539 4.50006C9.04539 4.50006 9.03539 4.52006 9.01539 4.53006C8.99539 4.54006 8.97539 4.56006 8.96539 4.58006C8.92539 4.62006 8.88539 4.66006 8.85539 4.70006C8.83539 4.70006 8.81539 4.69006 8.79539 4.70006C8.83539 4.61006 8.86539 4.52006 8.90539 4.42006C8.96539 4.27006 9.02539 4.13006 9.09539 3.99006L9.07539 3.97006ZM5.77539 2.47006C5.77539 2.47006 5.77539 2.47006 5.77539 2.48006C5.81539 2.54006 5.88539 2.55006 5.94539 2.54006C5.86539 2.76006 5.78539 2.98006 5.70539 3.20006C5.68539 3.20006 5.66539 3.20006 5.64539 3.21006C5.60539 3.23006 5.57539 3.26006 5.55539 3.30006C5.49539 3.42006 5.44539 3.54006 5.38539 3.66006C5.48539 3.36006 5.57539 3.06006 5.67539 2.76006C5.70539 2.66006 5.74539 2.56006 5.77539 2.46006V2.47006ZM8.34539 13.8201C8.28539 14.1301 8.22539 14.4501 8.16539 14.7601C8.14539 14.8301 8.13539 14.9001 8.12539 14.9701C8.12539 15.0001 8.12539 15.0201 8.13539 15.0401C8.13539 15.0601 8.11539 15.0801 8.10539 15.1001C8.10539 15.0101 8.10539 14.9301 8.10539 14.8401C8.10539 14.7701 8.10539 14.7001 8.10539 14.6201C8.10539 14.6001 8.10539 14.5801 8.10539 14.5501C8.10539 14.5201 8.10539 14.4901 8.09539 14.4601C8.08539 14.4301 8.05539 14.4201 8.03539 14.4001C8.12539 14.0901 8.22539 13.7801 8.31539 13.4701C8.36539 13.3101 8.41539 13.1401 8.47539 12.9801C8.42539 13.2501 8.38539 13.5301 8.33539 13.8101L8.34539 13.8201ZM6.41539 14.5601C6.37539 14.6301 6.32539 14.7001 6.27539 14.7801C6.28539 14.7101 6.29539 14.6401 6.30539 14.5701C6.31539 14.5001 6.32539 14.4301 6.34539 14.3601C6.35539 14.3701 6.37539 14.3901 6.38539 14.4001C6.42539 14.4201 6.46539 14.4201 6.50539 14.4001C6.49539 14.4201 6.47539 14.4401 6.46539 14.4601C6.43539 14.5101 6.41539 14.5501 6.38539 14.6001C6.38539 14.5901 6.40539 14.5801 6.40539 14.5601H6.41539ZM5.51539 14.6901C5.51539 14.6901 5.50539 14.7501 5.49539 14.7801C5.46539 14.7001 5.42539 14.6201 5.38539 14.5401C5.38539 14.5401 5.38539 14.5301 5.38539 14.5201C5.40539 14.4401 5.43539 14.3601 5.46539 14.2801C5.50539 14.1601 5.54539 14.0401 5.59539 13.9201C5.66539 13.7301 5.73539 13.5401 5.80539 13.3501C5.77539 13.5301 5.73539 13.7001 5.70539 13.8801C5.65539 14.1501 5.59539 14.4201 5.53539 14.6901H5.51539ZM5.07539 14.0101C5.07539 14.0101 5.03539 13.9701 5.02539 13.9501C5.06539 13.8001 5.11539 13.6401 5.16539 13.4901C5.19539 13.4001 5.22539 13.3101 5.25539 13.2101C5.22539 13.3801 5.18539 13.5401 5.15539 13.7101C5.13539 13.8201 5.11539 13.9201 5.09539 14.0301C5.09539 14.0301 5.09539 14.0201 5.08539 14.0101H5.07539ZM4.60539 13.5901C4.60539 13.5901 4.60539 13.5901 4.59539 13.5901C4.56539 13.5601 4.54539 13.5301 4.51539 13.5101C4.54539 13.4401 4.57539 13.3701 4.59539 13.3001C4.61539 13.2301 4.64539 13.1701 4.66539 13.1001C4.72539 12.9301 4.78539 12.7601 4.84539 12.5901C4.80539 12.7701 4.77539 12.9601 4.73539 13.1401C4.70539 13.3001 4.67539 13.4701 4.65539 13.6401C4.63539 13.6301 4.62539 13.6201 4.60539 13.6001V13.5901ZM4.09539 13.0701C4.15539 12.9901 4.18539 12.8901 4.21539 12.8001C4.24539 12.6901 4.28539 12.5701 4.31539 12.4601C4.35539 12.3201 4.39539 12.1901 4.44539 12.0501C4.42539 12.1501 4.39539 12.2501 4.37539 12.3501C4.32539 12.5501 4.28539 12.7501 4.23539 12.9501C4.21539 13.0201 4.20539 13.0901 4.19539 13.1601C4.16539 13.1301 4.13539 13.1001 4.10539 13.0801L4.09539 13.0701ZM9.18539 9.23006C9.12539 9.38006 9.06539 9.54006 9.00539 9.69006C8.97539 9.78006 8.93539 9.88006 8.90539 9.98006C8.88539 10.0201 8.87539 10.0601 8.86539 10.1001C8.85539 10.1401 8.84539 10.1801 8.83539 10.2101V10.2801C8.83539 10.2801 8.85539 10.3501 8.88539 10.3801C8.81539 10.6401 8.73539 10.9101 8.66539 11.1701C8.63539 11.2701 8.60539 11.3701 8.57539 11.4701C8.49539 11.6801 8.42539 11.8901 8.35539 12.1001C8.33539 12.1501 8.32539 12.2001 8.30539 12.2501C8.33539 12.0501 8.36539 11.8501 8.39539 11.6501C8.42539 11.4301 8.46539 11.2001 8.50539 10.9801C8.50539 10.9501 8.51539 10.9101 8.52539 10.8801C8.52539 10.8701 8.52539 10.8501 8.53539 10.8401C8.58539 10.6601 8.62539 10.4901 8.66539 10.3101C8.72539 10.2101 8.77539 10.1101 8.82539 10.0101C8.92539 9.82006 9.00539 9.62006 9.09539 9.43006C9.13539 9.34006 9.17539 9.25006 9.21539 9.16006C9.21539 9.18006 9.20539 9.21006 9.19539 9.23006H9.18539ZM4.62539 7.81006C4.76539 7.42006 4.89539 7.03006 5.04539 6.65006C5.15539 6.37006 5.26539 6.09006 5.37539 5.81006C5.38539 5.81006 5.39539 5.81006 5.40539 5.80006C5.35539 5.94006 5.29539 6.07006 5.23539 6.21006C5.14539 6.43006 5.07539 6.65006 4.98539 6.87006C4.88539 7.14006 4.78539 7.41006 4.68539 7.67006C4.60539 7.88006 4.52539 8.09006 4.44539 8.30006C4.49539 8.14006 4.55539 7.98006 4.60539 7.82006L4.62539 7.81006ZM5.13539 8.77006C5.13539 8.77006 5.10539 8.68006 5.06539 8.66006C5.08539 8.62006 5.10539 8.57006 5.12539 8.53006C5.22539 8.30006 5.32539 8.08006 5.42539 7.85006C5.46539 7.75006 5.51539 7.65006 5.55539 7.55006C5.50539 7.67006 5.46539 7.79006 5.42539 7.91006C5.35539 8.10006 5.28539 8.30006 5.22539 8.50006C5.19539 8.59006 5.17539 8.69006 5.14539 8.78006L5.13539 8.77006ZM5.91539 8.85006C5.91539 8.85006 5.89539 8.86006 5.88539 8.87006C5.90539 8.84006 5.91539 8.80006 5.93539 8.77006C5.95539 8.73006 5.96539 8.69006 5.98539 8.66006C5.96539 8.73006 5.93539 8.79006 5.91539 8.86006V8.85006ZM5.73539 10.2101C5.73539 10.2101 5.74539 10.1801 5.75539 10.1601C5.80539 10.0001 5.86539 9.85006 5.91539 9.69006C5.95539 9.69006 5.99539 9.67006 6.02539 9.63006C6.02539 9.65006 6.01539 9.66006 6.00539 9.68006C5.93539 9.88006 5.87539 10.0801 5.80539 10.2801C5.66539 10.7201 5.53539 11.1701 5.39539 11.6201C5.38539 11.6501 5.37539 11.6801 5.36539 11.7101C5.44539 11.3501 5.53539 10.9901 5.62539 10.6301C5.65539 10.4901 5.69539 10.3601 5.72539 10.2201L5.73539 10.2101ZM7.16539 10.0901C7.16539 10.0901 7.16539 10.1101 7.16539 10.1201C7.16539 10.1301 7.15539 10.1401 7.15539 10.1501C7.14539 10.1801 7.12539 10.2201 7.11539 10.2501C7.09539 10.3101 7.07539 10.3601 7.04539 10.4201C7.02539 10.4501 7.00539 10.4701 7.00539 10.5101C7.00539 10.5501 7.00539 10.5901 7.00539 10.6201C6.97539 10.7101 6.94539 10.7901 6.91539 10.8801C6.88539 10.9901 6.84539 11.0901 6.82539 11.2001C6.87539 10.9101 6.92539 10.6101 6.96539 10.3101C6.96539 10.2901 6.97539 10.2701 6.98539 10.2501C7.00539 10.1901 7.02539 10.1301 7.04539 10.0701C7.08539 10.0901 7.13539 10.0901 7.17539 10.0701L7.16539 10.0901ZM4.53539 10.6901C4.53539 10.6901 4.53539 10.7201 4.52539 10.7301C4.57539 10.5601 4.62539 10.3801 4.67539 10.2101C4.67539 10.2201 4.67539 10.2401 4.66539 10.2501C4.74539 9.96006 4.82539 9.67006 4.92539 9.39006C4.93539 9.36006 4.95539 9.32006 4.96539 9.29006C4.99539 9.21006 5.03539 9.14006 5.06539 9.06006C5.06539 9.04006 5.08539 9.01006 5.09539 8.99006C5.09539 9.00006 5.09539 9.02006 5.09539 9.03006C5.09539 9.08006 5.12539 9.11006 5.15539 9.14006C5.15539 9.17006 5.13539 9.20006 5.13539 9.23006C5.13539 9.24006 5.13539 9.25006 5.13539 9.26006C5.08539 9.39006 5.03539 9.52006 4.98539 9.65006C4.85539 10.0001 4.72539 10.3301 4.59539 10.6801C4.55539 10.7901 4.51539 10.8901 4.47539 11.0001C4.50539 10.9001 4.52539 10.8001 4.55539 10.6901H4.53539ZM5.43539 9.34006C5.43539 9.34006 5.46539 9.25006 5.48539 9.21006C5.52539 9.23006 5.57539 9.25006 5.63539 9.23006C5.64539 9.23006 5.65539 9.21006 5.66539 9.21006C5.64539 9.27006 5.62539 9.33006 5.61539 9.39006C5.58539 9.50006 5.55539 9.60006 5.52539 9.71006C5.49539 9.84006 5.45539 9.96006 5.42539 10.0901C5.42539 10.1101 5.41539 10.1301 5.40539 10.1501C5.27539 10.5101 5.13539 10.8701 4.99539 11.2301C4.99539 11.2501 4.97539 11.2701 4.97539 11.2901C5.13539 10.6401 5.27539 9.99006 5.43539 9.34006ZM5.84539 12.2701C5.86539 12.2001 5.88539 12.1301 5.90539 12.0601C5.91539 12.0601 5.93539 12.0601 5.94539 12.0501C5.94539 12.0701 5.93539 12.0901 5.92539 12.1101C5.87539 12.2301 5.82539 12.3501 5.77539 12.4701C5.79539 12.4001 5.81539 12.3401 5.83539 12.2701H5.84539ZM6.25539 12.7501C6.25539 12.7501 6.25539 12.7501 6.26539 12.7501C6.25539 12.7801 6.24539 12.8001 6.23539 12.8301C6.23539 12.8001 6.24539 12.7701 6.25539 12.7401V12.7501ZM7.23539 13.8501C7.23539 13.8501 7.23539 13.8601 7.23539 13.8701C7.23539 13.9001 7.23539 13.9301 7.22539 13.9701C7.22539 13.9701 7.21539 13.9701 7.20539 13.9801C7.21539 13.9401 7.22539 13.9001 7.24539 13.8501H7.23539ZM7.35539 14.6201C7.35539 14.6201 7.37539 14.5301 7.38539 14.4801C7.40539 14.4801 7.42539 14.4801 7.44539 14.4701C7.44539 14.4701 7.44539 14.4801 7.44539 14.4901C7.43539 14.5201 7.42539 14.5401 7.41539 14.5701L7.36539 14.7001C7.36539 14.7001 7.36539 14.6501 7.37539 14.6301L7.35539 14.6201ZM7.60539 14.2201C7.63539 14.1501 7.64539 14.0801 7.66539 14.0101C7.67539 13.9701 7.68539 13.9301 7.69539 13.9001C7.67539 13.9801 7.66539 14.0701 7.65539 14.1601C7.65539 14.1801 7.65539 14.2001 7.65539 14.2201C7.63539 14.2201 7.62539 14.2201 7.61539 14.2301L7.60539 14.2201ZM4.48539 5.99006C4.48539 5.99006 4.48539 5.95006 4.49539 5.93006C4.49539 5.93006 4.49539 5.93006 4.49539 5.94006C4.49539 5.95006 4.49539 5.97006 4.48539 5.98006V5.99006ZM6.66539 12.6401C6.69539 12.5601 6.72539 12.4801 6.75539 12.4101C6.68539 12.7101 6.62539 13.0101 6.54539 13.3101C6.50539 13.4501 6.46539 13.6001 6.42539 13.7401C6.42539 13.7701 6.41539 13.7901 6.40539 13.8201C6.37539 13.7801 6.34539 13.7501 6.29539 13.7501H6.27539C6.40539 13.3801 6.52539 13.0101 6.66539 12.6501V12.6401ZM6.61539 14.3001C6.61539 14.3001 6.64539 14.2301 6.65539 14.2001C6.65539 14.2301 6.64539 14.2701 6.63539 14.3001H6.61539ZM9.57539 11.9701C9.57539 11.9701 9.60539 11.9201 9.62539 11.8901C9.65539 11.8201 9.69539 11.7401 9.72539 11.6701C9.73539 11.6401 9.74539 11.6101 9.76539 11.5801C9.81539 11.4501 9.87539 11.3201 9.92539 11.1901C9.94539 11.1301 9.97539 11.0801 9.99539 11.0201C9.97539 11.1201 9.94539 11.2201 9.92539 11.3201C9.88539 11.4501 9.85539 11.5901 9.81539 11.7201C9.78539 11.7301 9.75539 11.7501 9.72539 11.7701C9.67539 11.8201 9.65539 11.8801 9.62539 11.9501C9.59539 12.0101 9.57539 12.0601 9.54539 12.1201C9.55539 12.0601 9.57539 12.0101 9.59539 11.9501L9.57539 11.9701ZM11.8354 5.84006C11.8354 5.84006 11.8354 5.86006 11.8254 5.87006C11.8254 5.87006 11.8254 5.85006 11.8254 5.84006H11.8354ZM9.84539 6.87006C9.84539 6.87006 9.84539 6.88006 9.84539 6.89006C9.81539 6.94006 9.79539 7.00006 9.76539 7.05006C9.78539 7.01006 9.79539 6.97006 9.81539 6.93006C9.81539 6.91006 9.83539 6.89006 9.83539 6.87006H9.84539ZM7.74539 4.62006C7.72539 4.68006 7.70539 4.73006 7.69539 4.79006C7.64539 4.99006 7.59539 5.18006 7.54539 5.38006C7.50539 5.54006 7.47539 5.71006 7.43539 5.87006C7.35539 6.02006 7.28539 6.17006 7.21539 6.32006C7.26539 6.18006 7.31539 6.04006 7.36539 5.90006C7.39539 5.81006 7.42539 5.71006 7.46539 5.62006C7.49539 5.54006 7.51539 5.46006 7.53539 5.37006C7.54539 5.32006 7.55539 5.26006 7.55539 5.21006C7.55539 5.18006 7.54539 5.16006 7.53539 5.13006C7.53539 5.11006 7.51539 5.11006 7.50539 5.09006C7.56539 4.92006 7.62539 4.76006 7.69539 4.60006C7.71539 4.56006 7.72539 4.53006 7.74539 4.49006C7.74539 4.51006 7.74539 4.54006 7.74539 4.56006C7.74539 4.58006 7.76539 4.60006 7.77539 4.62006H7.74539ZM12.3054 5.82006C12.3354 5.74006 12.3554 5.66006 12.3854 5.58006C12.4254 5.46006 12.4654 5.34006 12.5154 5.22006C12.5254 5.19006 12.5354 5.16006 12.5454 5.12006C12.5554 5.12006 12.5754 5.12006 12.5854 5.12006C12.5354 5.23006 12.4854 5.34006 12.4354 5.45006C12.3854 5.57006 12.3354 5.69006 12.2954 5.81006L12.3054 5.82006ZM11.2454 6.18006C11.2454 6.18006 11.3454 6.16006 11.3654 6.11006C11.3654 6.10006 11.3854 6.08006 11.3854 6.07006C11.2654 6.43006 11.1454 6.80006 11.0254 7.17006C11.0654 6.93006 11.1054 6.69006 11.1454 6.44006C11.1654 6.35006 11.1754 6.26006 11.1954 6.16006C11.2154 6.16006 11.2254 6.18006 11.2354 6.17006L11.2454 6.18006ZM10.9654 5.65006C10.9354 5.79006 10.9054 5.93006 10.8854 6.07006C10.8854 6.09006 10.8754 6.12006 10.8654 6.14006C10.8654 6.09006 10.8854 6.03006 10.8954 5.98006C10.9154 5.90006 10.9354 5.82006 10.9454 5.74006C10.9454 5.74006 10.9454 5.73006 10.9454 5.72006C10.9454 5.70006 10.9454 5.68006 10.9554 5.66006L10.9654 5.65006ZM7.90539 3.30006C7.87539 3.36006 7.83539 3.43006 7.80539 3.49006C7.77539 3.54006 7.75539 3.60006 7.72539 3.65006C7.75539 3.57006 7.77539 3.49006 7.80539 3.41006C7.81539 3.38006 7.82539 3.34006 7.83539 3.31006C7.85539 3.31006 7.88539 3.31006 7.90539 3.30006ZM7.50539 2.46006C7.50539 2.46006 7.49539 2.40006 7.47539 2.37006C7.49539 2.34006 7.50539 2.31006 7.52539 2.28006C7.52539 2.34006 7.52539 2.40006 7.51539 2.46006H7.50539ZM3.59539 9.49006C3.59539 9.49006 3.62539 9.54006 3.64539 9.56006C3.56539 9.77006 3.48539 9.98006 3.40539 10.1901C3.42539 10.1101 3.44539 10.0201 3.46539 9.94006C3.49539 9.81006 3.53539 9.68006 3.56539 9.56006C3.56539 9.54006 3.57539 9.51006 3.58539 9.49006H3.59539ZM3.75539 12.5301C3.75539 12.5301 3.77539 12.4801 3.78539 12.4501C3.78539 12.4701 3.78539 12.4901 3.78539 12.5101C3.77539 12.6001 3.76539 12.6801 3.75539 12.7701C3.72539 12.7501 3.69539 12.7301 3.66539 12.7101C3.67539 12.6901 3.68539 12.6801 3.69539 12.6601C3.71539 12.6201 3.73539 12.5701 3.75539 12.5301ZM8.49539 15.0701C8.49539 15.0701 8.50539 14.9901 8.51539 14.9601C8.51539 14.9401 8.52539 14.9301 8.53539 14.9201C8.54539 14.8801 8.55539 14.8501 8.56539 14.8101C8.56539 14.7601 8.55539 14.7201 8.52539 14.6801C8.55539 14.5601 8.58539 14.4401 8.61539 14.3101C8.61539 14.3201 8.61539 14.3401 8.60539 14.3501C8.65539 14.1601 8.71539 13.9801 8.77539 13.7901C8.74539 13.9201 8.71539 14.0401 8.68539 14.1701C8.65539 14.3301 8.61539 14.5001 8.59539 14.6601C8.58539 14.7401 8.56539 14.8201 8.55539 14.9001C8.55539 14.9201 8.55539 14.9401 8.55539 14.9501C8.53539 14.9801 8.51539 15.0301 8.49539 15.0701ZM10.6354 12.4901C10.6354 12.4901 10.6254 12.5801 10.6154 12.6301C10.6154 12.6301 10.6154 12.6301 10.6054 12.6301C10.6054 12.5801 10.6254 12.5401 10.6354 12.4901ZM12.7054 5.88006C12.7054 5.88006 12.7054 5.85006 12.7154 5.84006C12.6454 6.07006 12.5654 6.30006 12.4854 6.53006C12.4754 6.53006 12.4554 6.53006 12.4454 6.55006C12.4254 6.57006 12.4054 6.59006 12.3954 6.62006C12.3854 6.65006 12.3654 6.68006 12.3554 6.70006C12.4454 6.43006 12.5354 6.16006 12.6354 5.89006C12.6854 5.74006 12.7454 5.59006 12.8154 5.45006C12.8154 5.45006 12.8154 5.44006 12.8154 5.43006C12.8154 5.46006 12.8054 5.48006 12.7954 5.51006C12.7654 5.64006 12.7254 5.76006 12.6954 5.88006H12.7054ZM13.1454 5.53006C13.1554 5.47006 13.1754 5.40006 13.1854 5.34006C13.1954 5.28006 13.2054 5.22006 13.2154 5.16006C13.2154 5.16006 13.2254 5.16006 13.2254 5.15006C13.2654 5.10006 13.2954 5.03006 13.3154 4.97006C13.3354 4.92006 13.3554 4.86006 13.3854 4.81006C13.4054 4.76006 13.4254 4.70006 13.4554 4.65006C13.4054 4.80006 13.3654 4.94006 13.3154 5.09006L13.1854 5.47006C13.1854 5.47006 13.1554 5.52006 13.1454 5.54006V5.53006ZM12.3054 11.2801C12.3254 11.1601 12.3454 11.0401 12.3654 10.9301C12.3854 10.9101 12.4054 10.8901 12.4254 10.8601C12.3854 11.0201 12.3454 11.1701 12.2954 11.3301C12.2954 11.3101 12.2954 11.3001 12.2954 11.2801H12.3054ZM13.9954 6.86006C13.9954 6.86006 13.9754 6.86006 13.9654 6.86006C13.9654 6.84006 13.9854 6.81006 13.9954 6.79006C13.9954 6.80006 13.9954 6.81006 13.9954 6.83006C13.9954 6.84006 13.9954 6.86006 13.9954 6.87006V6.86006ZM14.0854 6.41006C14.0854 6.41006 14.0354 6.35006 14.0054 6.34006C13.9954 6.34006 13.9754 6.34006 13.9654 6.34006C14.0254 6.20006 14.0854 6.05006 14.1454 5.91006C14.1754 5.84006 14.2154 5.77006 14.2454 5.70006C14.2154 5.83006 14.1854 5.95006 14.1654 6.08006C14.1454 6.19006 14.1154 6.31006 14.0954 6.42006L14.0854 6.41006ZM13.9454 4.80006C13.9454 4.80006 13.9554 4.78006 13.9654 4.76006C13.9354 4.85006 13.9054 4.95006 13.8754 5.04006C13.7854 5.32006 13.6854 5.59006 13.5954 5.87006C13.6254 5.75006 13.6354 5.63006 13.6354 5.50006C13.6654 5.45006 13.6954 5.39006 13.7154 5.34006C13.7954 5.16006 13.8754 4.98006 13.9554 4.79006L13.9454 4.80006ZM13.0654 7.81006C13.0654 7.81006 13.1054 7.86006 13.1354 7.87006C13.1454 7.87006 13.1554 7.87006 13.1754 7.87006C13.1154 8.05006 13.0454 8.23006 12.9754 8.41006C12.8854 8.67006 12.8054 8.93006 12.7154 9.20006C12.7154 9.17006 12.7254 9.13006 12.7354 9.10006C12.7954 8.86006 12.8454 8.61006 12.9154 8.37006C12.9554 8.22006 12.9954 8.06006 13.0354 7.91006C13.0454 7.87006 13.0554 7.84006 13.0654 7.80006V7.81006ZM12.2954 13.9901C12.3154 13.9301 12.3354 13.8701 12.3554 13.8101C12.3854 13.7001 12.4254 13.5901 12.4554 13.4801C12.5154 13.2601 12.5854 13.0501 12.6454 12.8301C12.6654 12.7601 12.6954 12.6801 12.7154 12.6101C12.6854 12.7301 12.6554 12.8601 12.6254 12.9801C12.5754 13.1901 12.5354 13.4101 12.4954 13.6301C12.4754 13.7301 12.4654 13.8301 12.4454 13.9301C12.4454 13.9901 12.4254 14.0501 12.4254 14.1101C12.4254 14.1101 12.4254 14.0901 12.4254 14.0801C12.4054 14.0301 12.3554 14.0001 12.3054 13.9901H12.2954ZM12.4254 14.3601C12.4254 14.3601 12.4254 14.3301 12.4254 14.3101C12.4254 14.3201 12.4354 14.3401 12.4454 14.3501C12.4454 14.3701 12.4254 14.3901 12.4154 14.4101C12.4154 14.3901 12.4154 14.3801 12.4154 14.3601H12.4254ZM12.7954 11.3001C12.7254 11.5001 12.6554 11.6901 12.5954 11.8901C12.5454 12.0401 12.5054 12.1801 12.4554 12.3301C12.4754 12.2101 12.5054 12.0801 12.5254 11.9601C12.5554 11.7901 12.6054 11.6101 12.6354 11.4401C12.6554 11.3501 12.6854 11.2501 12.7054 11.1601C12.7254 11.2001 12.7654 11.2301 12.8154 11.2501C12.8154 11.2701 12.8054 11.2901 12.7954 11.3001ZM14.1254 8.01006C14.1254 8.01006 14.0954 8.11006 14.0754 8.15006C14.0554 8.15006 14.0354 8.13006 14.0154 8.14006C13.9654 8.15006 13.9154 8.16006 13.8754 8.21006C13.8354 8.25006 13.8154 8.30006 13.7854 8.35006C13.7354 8.44006 13.6854 8.55006 13.6454 8.65006C13.5454 8.88006 13.4454 9.10006 13.3554 9.33006C13.2854 9.49006 13.2254 9.66006 13.1654 9.83006C13.1854 9.73006 13.2054 9.63006 13.2254 9.53006C13.2754 9.31006 13.3254 9.08006 13.3754 8.86006C13.3754 8.86006 13.3754 8.84006 13.3754 8.83006C13.3754 8.82006 13.3754 8.81006 13.3854 8.79006C13.4354 8.63006 13.4954 8.48006 13.5554 8.33006C13.6154 8.19006 13.6654 8.05006 13.7254 7.90006C13.8354 7.62006 13.9654 7.35006 14.0854 7.07006C14.0854 7.06006 14.0854 7.04006 14.0854 7.03006C14.1254 7.04006 14.1654 7.05006 14.2054 7.03006C14.2354 7.02006 14.2654 7.00006 14.2854 6.97006C14.2954 6.95006 14.3154 6.92006 14.3254 6.90006C14.3454 6.87006 14.3554 6.83006 14.3754 6.79006C14.4154 6.71006 14.4454 6.62006 14.4754 6.54006C14.5454 6.36006 14.6054 6.18006 14.6654 6.00006C14.6654 5.98006 14.6754 5.96006 14.6854 5.95006C14.6854 5.95006 14.6854 5.95006 14.7054 5.96006C14.7254 5.98006 14.7454 5.99006 14.7654 5.99006C14.7654 6.01006 14.7654 6.03006 14.7654 6.04006C14.7654 6.05006 14.7654 6.07006 14.7654 6.08006C14.7254 6.18006 14.6854 6.29006 14.6554 6.39006C14.5554 6.67006 14.4654 6.96006 14.3754 7.25006C14.2954 7.50006 14.2054 7.75006 14.1254 8.00006V8.01006ZM15.4454 10.1001C15.4454 10.1001 15.4454 10.0401 15.4554 10.0201C15.4554 10.0101 15.4554 10.0001 15.4554 9.99006C15.4654 10.0301 15.4754 10.0701 15.4954 10.1001C15.5254 10.2101 15.5554 10.3101 15.5954 10.4101C15.5854 10.4201 15.5654 10.4401 15.5554 10.4601C15.5154 10.5101 15.4754 10.5601 15.4454 10.6201C15.4154 10.6701 15.3754 10.7301 15.3454 10.7801C15.3654 10.6601 15.3854 10.5401 15.3954 10.4201C15.4154 10.3101 15.4354 10.2101 15.4454 10.1001ZM14.7154 4.84006C14.7154 4.84006 14.7354 4.84006 14.7454 4.84006C14.7454 4.84006 14.7454 4.85006 14.7554 4.86006C14.7554 4.88006 14.7754 4.90006 14.7754 4.92006C14.7654 4.94006 14.7554 4.96006 14.7454 4.98006C14.7454 5.00006 14.7254 5.02006 14.7154 5.03006C14.7254 4.96006 14.7354 4.89006 14.7154 4.83006V4.84006ZM14.8754 6.79006C14.8754 6.87006 14.8654 6.94006 14.8554 7.02006C14.8454 7.02006 14.8254 7.03006 14.8154 7.04006C14.8054 7.04006 14.7954 7.06006 14.7854 7.07006C14.8154 6.98006 14.8454 6.88006 14.8754 6.79006ZM14.7654 10.4901C14.7954 10.2501 14.8354 10.0201 14.8754 9.78006C14.8754 9.74006 14.8854 9.70006 14.8954 9.65006C14.9154 9.64006 14.9354 9.62006 14.9554 9.60006C14.9954 9.56006 14.9954 9.50006 15.0054 9.45006C15.0054 9.41006 15.0154 9.36006 15.0254 9.32006C15.0254 9.34006 15.0354 9.36006 15.0454 9.38006C15.0654 9.43006 15.0754 9.49006 15.1154 9.54006C15.1454 9.57006 15.1854 9.60006 15.2254 9.61006C15.2654 9.61006 15.3054 9.61006 15.3454 9.58006C15.3454 9.59006 15.3454 9.60006 15.3454 9.61006C15.3654 9.70006 15.3954 9.80006 15.4254 9.89006C15.4254 9.88006 15.4054 9.86006 15.3954 9.85006C15.3354 9.80006 15.2554 9.81006 15.1954 9.85006C15.1554 9.88006 15.1354 9.92006 15.1154 9.96006C15.0854 10.0001 15.0654 10.0501 15.0454 10.1001C14.9654 10.2601 14.8954 10.4301 14.8354 10.6001C14.8054 10.6801 14.7654 10.7701 14.7354 10.8501C14.7454 10.7301 14.7654 10.6101 14.7854 10.4901H14.7654ZM14.5854 4.50006C14.5854 4.50006 14.5354 4.42006 14.4854 4.40006V4.38006C14.5154 4.42006 14.5454 4.47006 14.5854 4.51006V4.50006ZM12.1454 4.87006V4.85006C12.1454 4.85006 12.1454 4.86006 12.1354 4.87006H12.1454ZM8.83539 3.70006C8.83539 3.70006 8.82539 3.73006 8.81539 3.74006C8.75539 3.85006 8.68539 3.97006 8.62539 4.09006C8.48539 4.34006 8.37539 4.61006 8.25539 4.87006C8.22539 4.81006 8.16539 4.77006 8.09539 4.78006C8.07539 4.78006 8.05539 4.79006 8.03539 4.80006C8.03539 4.78006 8.04539 4.75006 8.05539 4.73006C8.05539 4.74006 8.05539 4.76006 8.04539 4.77006C8.10539 4.57006 8.17539 4.36006 8.24539 4.16006C8.29539 4.01006 8.34539 3.86006 8.39539 3.72006C8.39539 3.72006 8.40539 3.74006 8.41539 3.75006C8.45539 3.78006 8.49539 3.79006 8.53539 3.78006C8.59539 3.78006 8.64539 3.73006 8.67539 3.68006C8.69539 3.63006 8.71539 3.58006 8.72539 3.52006C8.72539 3.50006 8.73539 3.48006 8.74539 3.46006C8.74539 3.48006 8.75539 3.50006 8.76539 3.51006C8.78539 3.56006 8.82539 3.60006 8.86539 3.65006C8.86539 3.67006 8.84539 3.68006 8.83539 3.70006ZM7.11539 2.52006C7.06539 2.63006 7.00539 2.75006 6.95539 2.87006C6.88539 3.02006 6.81539 3.18006 6.74539 3.33006C6.73539 3.33006 6.71539 3.33006 6.70539 3.35006C6.68539 3.37006 6.66539 3.39006 6.63539 3.41006C6.61539 3.44006 6.59539 3.47006 6.57539 3.50006C6.56539 3.52006 6.55539 3.53006 6.54539 3.55006C6.58539 3.42006 6.62539 3.28006 6.66539 3.15006C6.72539 2.95006 6.78539 2.75006 6.85539 2.55006C6.88539 2.47006 6.90539 2.39006 6.93539 2.30006C6.93539 2.28006 6.94539 2.26006 6.95539 2.25006C6.95539 2.30006 6.97539 2.35006 6.99539 2.39006C7.00539 2.42006 7.02539 2.44006 7.03539 2.47006C7.05539 2.50006 7.07539 2.51006 7.10539 2.52006H7.11539ZM6.24539 1.28006C6.24539 1.28006 6.24539 1.27006 6.24539 1.26006C6.24539 1.26006 6.24539 1.26006 6.24539 1.27006V1.28006ZM4.40539 3.51006H4.37539C4.37539 3.51006 4.42539 3.42006 4.45539 3.38006C4.44539 3.42006 4.42539 3.47006 4.41539 3.51006H4.40539ZM3.76539 3.33006C3.76539 3.33006 3.78539 3.33006 3.80539 3.33006C3.78539 3.37006 3.76539 3.41006 3.74539 3.45006C3.74539 3.46006 3.74539 3.47006 3.73539 3.48006C3.74539 3.43006 3.75539 3.37006 3.77539 3.32006L3.76539 3.33006ZM3.16539 4.53006C3.16539 4.53006 3.17539 4.51006 3.18539 4.50006C3.18539 4.53006 3.18539 4.56006 3.17539 4.59006C3.15539 4.59006 3.12539 4.58006 3.10539 4.57006C3.12539 4.55006 3.15539 4.54006 3.16539 4.52006V4.53006ZM3.58539 10.7401C3.53539 10.9501 3.49539 11.1501 3.44539 11.3601C3.38539 11.6301 3.31539 11.9001 3.26539 12.1701C3.25539 12.2401 3.29539 12.3201 3.36539 12.3501C3.35539 12.4001 3.34539 12.4501 3.33539 12.5001C3.31539 12.4901 3.29539 12.4701 3.27539 12.4601C3.19539 12.4201 3.12539 12.3801 3.05539 12.3401C3.05539 12.3301 3.07539 12.3201 3.08539 12.3001C3.11539 12.2501 3.12539 12.1701 3.14539 12.1201C3.15539 12.0901 3.16539 12.0501 3.17539 12.0201C3.22539 11.8601 3.27539 11.7101 3.32539 11.5501C3.41539 11.2801 3.50539 11.0101 3.58539 10.7401ZM1.60539 11.8201C1.60539 11.8201 1.60539 11.8401 1.60539 11.8501C1.58539 11.8501 1.57539 11.8501 1.55539 11.8501H1.54539C1.54539 11.8501 1.54539 11.8501 1.54539 11.8401C1.57539 11.7901 1.59539 11.7401 1.62539 11.6901C1.62539 11.6901 1.62539 11.6801 1.62539 11.6701C1.61539 11.7201 1.60539 11.7701 1.59539 11.8301L1.60539 11.8201ZM0.81539 9.55006C0.81539 9.53006 0.82539 9.51006 0.81539 9.49006C0.80539 9.45006 0.77539 9.42006 0.74539 9.40006C0.78539 9.39006 0.83539 9.38006 0.87539 9.37006C0.89539 9.39006 0.91539 9.41006 0.94539 9.42006C0.94539 9.44006 0.94539 9.46006 0.94539 9.49006C0.94539 9.55006 0.94539 9.61006 0.94539 9.67006C0.94539 9.70006 0.96539 9.72006 0.97539 9.75006C0.96539 9.73006 0.94539 9.72006 0.93539 9.70006C0.89539 9.65006 0.84539 9.61006 0.80539 9.56006L0.81539 9.55006ZM1.23539 10.0501H1.25539C1.25539 10.1001 1.27539 10.1501 1.30539 10.1901C1.32539 10.2201 1.35539 10.2401 1.39539 10.2501C1.39539 10.2901 1.37539 10.3301 1.37539 10.3801C1.33539 10.2801 1.30539 10.1801 1.24539 10.1001C1.24539 10.0901 1.22539 10.0701 1.21539 10.0601H1.23539V10.0501ZM10.1354 15.0201C10.1354 15.0201 10.1354 14.9801 10.1454 14.9501C10.1454 14.9301 10.1654 14.9101 10.1754 14.8901C10.2154 14.8101 10.2454 14.7401 10.2754 14.6601C10.2954 14.6101 10.3254 14.5501 10.3454 14.5001C10.3254 14.5701 10.3054 14.6401 10.2854 14.7101C10.2754 14.7501 10.2554 14.8001 10.2454 14.8401C10.2054 14.9001 10.1654 14.9701 10.1254 15.0301C10.1254 15.0301 10.1254 15.0301 10.1254 15.0201H10.1354ZM10.7754 14.7301C10.7754 14.7301 10.7754 14.7201 10.7754 14.7101C10.7754 14.6901 10.7854 14.6801 10.7954 14.6601C10.7954 14.6801 10.7854 14.7001 10.7854 14.7201L10.7754 14.7301ZM11.1354 13.2901C11.1354 13.2901 11.0954 13.3601 11.0654 13.3901C11.0254 13.4501 10.9954 13.5201 10.9554 13.5801C10.9554 13.5901 10.9454 13.6101 10.9354 13.6201C10.9354 13.5901 10.9554 13.5601 10.9554 13.5201C10.9754 13.4301 10.9954 13.3401 11.0254 13.2501C11.0454 13.1601 11.0854 13.0701 11.0754 12.9801C11.0954 12.9601 11.1154 12.9301 11.1254 12.9001C11.1254 12.8501 11.1354 12.8101 11.1454 12.7601C11.1454 12.6901 11.1654 12.6201 11.1754 12.5501C11.1954 12.4401 11.2054 12.3401 11.2254 12.2301C11.2254 12.3101 11.2154 12.3901 11.2054 12.4801C11.1954 12.6101 11.1854 12.7401 11.1654 12.8701C11.1654 12.9201 11.1554 12.9801 11.1554 13.0301C11.1554 13.0601 11.1554 13.0801 11.1554 13.1101C11.1554 13.1501 11.1554 13.1801 11.1754 13.2101C11.1754 13.2301 11.1954 13.2401 11.2054 13.2601C11.1854 13.2701 11.1554 13.2901 11.1454 13.3101L11.1354 13.2901ZM11.7654 10.4801C11.7854 10.3801 11.7954 10.2701 11.8154 10.1701C11.8354 10.0401 11.8654 9.90006 11.8854 9.77006C11.9654 9.63006 12.0254 9.48006 12.0854 9.33006C12.1154 9.25006 12.1554 9.17006 12.1754 9.09006C12.2054 9.00006 12.2454 8.91006 12.2754 8.83006C12.4054 8.45006 12.5254 8.06006 12.6554 7.68006C12.7854 7.30006 12.9054 6.92006 13.0454 6.55006C13.0754 6.46006 13.1154 6.37006 13.1554 6.29006C13.1154 6.45006 13.0654 6.62006 13.0254 6.78006C13.0254 6.76006 13.0254 6.75006 13.0354 6.74006C12.9954 6.88006 12.9554 7.01006 12.9154 7.15006C12.8754 7.24006 12.8454 7.34006 12.8154 7.43006C12.7754 7.54006 12.7354 7.65006 12.7054 7.75006C12.6254 7.99006 12.5454 8.23006 12.4554 8.47006C12.3054 8.91006 12.1654 9.36006 12.0354 9.81006C12.0354 9.82006 12.0354 9.84006 12.0254 9.85006C12.0154 9.89006 11.9954 9.94006 11.9854 9.98006C11.9854 9.97006 11.9854 9.95006 11.9954 9.94006C11.9954 9.96006 11.9854 9.98006 11.9754 10.0001C11.9754 10.0101 11.9754 10.0201 11.9654 10.0401C11.9654 10.0601 11.9554 10.0801 11.9454 10.1101C11.9454 10.1301 11.9354 10.1401 11.9354 10.1601C11.9354 10.1801 11.9254 10.2001 11.9154 10.2301C11.9154 10.2601 11.9054 10.2801 11.8954 10.3101C11.8954 10.3101 11.8954 10.3101 11.8954 10.3201C11.8954 10.3501 11.8754 10.3701 11.8754 10.4001C11.8154 10.6301 11.7554 10.8701 11.6954 11.1001C11.7254 10.8901 11.7554 10.6901 11.7754 10.4801H11.7654ZM12.4054 15.0801C12.4054 15.0801 12.4254 15.0601 12.4354 15.0501C12.4454 15.0701 12.4754 15.0801 12.4954 15.1001C12.4754 15.1201 12.4654 15.1501 12.4454 15.1701C12.4454 15.1701 12.4454 15.1701 12.4254 15.1601C12.3954 15.1501 12.3654 15.1301 12.3354 15.1201C12.3554 15.1101 12.3854 15.0901 12.4054 15.0801ZM13.3454 11.6901C13.3454 11.6901 13.3354 11.6601 13.3254 11.6401C13.3254 11.6101 13.3454 11.5801 13.3554 11.5601C13.3654 11.5701 13.3854 11.5701 13.3954 11.5801C13.3854 11.6201 13.3654 11.6501 13.3454 11.6901ZM13.9654 10.2401C13.9854 10.1701 14.0054 10.1001 14.0254 10.0201C14.0254 10.0201 14.0254 10.0001 14.0254 9.99006C14.0254 9.99006 14.0254 9.99006 14.0254 9.98006C14.0654 9.87006 14.0954 9.76006 14.1354 9.65006C14.1854 9.51006 14.2354 9.37006 14.2854 9.22006C14.3754 8.98006 14.4754 8.74006 14.5654 8.49006C14.5454 8.58006 14.5254 8.68006 14.5154 8.77006C14.4454 9.10006 14.3854 9.43006 14.3054 9.77006C14.2554 9.77006 14.1954 9.78006 14.1654 9.83006C14.0854 9.95006 14.0254 10.0801 13.9654 10.2101C13.9554 10.2301 13.9454 10.2601 13.9354 10.2801C13.9354 10.2601 13.9354 10.2501 13.9454 10.2301L13.9654 10.2401ZM14.3754 10.9501C14.3754 10.9501 14.3754 11.0301 14.3654 11.0701C14.3654 11.0701 14.3554 11.0601 14.3454 11.0501C14.3554 11.0101 14.3654 10.9801 14.3754 10.9401V10.9501ZM14.8254 11.5401C14.8654 11.4201 14.9154 11.3101 14.9554 11.1901C14.9554 11.2101 14.9554 11.2301 14.9554 11.2501C14.9554 11.2601 14.9554 11.2801 14.9554 11.2901C14.9054 11.3701 14.8554 11.4601 14.8254 11.5501C14.7954 11.6301 14.7654 11.7201 14.7354 11.8001C14.7354 11.8301 14.7154 11.8601 14.7054 11.8901C14.7054 11.8701 14.7054 11.8401 14.6954 11.8201C14.7454 11.7301 14.7854 11.6301 14.8154 11.5401H14.8254ZM11.2354 4.58006C11.2354 4.58006 11.2054 4.58006 11.1954 4.58006C11.2054 4.58006 11.2254 4.58006 11.2354 4.58006ZM11.1354 4.61006C11.1354 4.61006 11.1354 4.61006 11.1254 4.60006C11.1354 4.60006 11.1554 4.60006 11.1654 4.60006C11.1654 4.60006 11.1454 4.60006 11.1354 4.61006ZM10.5354 4.60006C10.5354 4.60006 10.5254 4.60006 10.5154 4.62006C10.5154 4.61006 10.4954 4.59006 10.4854 4.58006C10.5054 4.58006 10.5354 4.58006 10.5554 4.58006C10.5554 4.58006 10.5354 4.59006 10.5254 4.60006H10.5354ZM8.73539 2.29006C8.73539 2.29006 8.72539 2.29006 8.71539 2.29006C8.72539 2.25006 8.73539 2.21006 8.74539 2.18006C8.74539 2.18006 8.74539 2.16006 8.75539 2.16006C8.75539 2.20006 8.73539 2.24006 8.72539 2.28006L8.73539 2.29006ZM4.74539 2.16006C4.74539 2.16006 4.74539 2.18006 4.75539 2.18006C4.69539 2.30006 4.62539 2.43006 4.55539 2.55006C4.55539 2.55006 4.55539 2.55006 4.55539 2.56006C4.55539 2.56006 4.55539 2.56006 4.55539 2.57006C4.55539 2.57006 4.55539 2.57006 4.55539 2.58006C4.55539 2.59006 4.54539 2.60006 4.53539 2.62006C4.56539 2.55006 4.60539 2.48006 4.63539 2.41006C4.67539 2.33006 4.71539 2.25006 4.75539 2.17006L4.74539 2.16006ZM2.66539 4.41006C2.66539 4.41006 2.66539 4.42006 2.66539 4.43006C2.66539 4.43006 2.64539 4.43006 2.63539 4.42006C2.63539 4.42006 2.64539 4.42006 2.65539 4.42006L2.66539 4.41006ZM3.12539 8.95006C3.12539 8.95006 3.11539 8.98006 3.10539 9.00006C3.04539 9.14006 2.99539 9.27006 2.93539 9.41006C2.81539 9.71006 2.70539 10.0101 2.58539 10.3001C2.54539 10.4101 2.50539 10.5201 2.46539 10.6301C2.49539 10.4701 2.53539 10.3101 2.57539 10.1501C2.63539 9.91006 2.69539 9.67006 2.76539 9.44006C2.76539 9.43006 2.76539 9.42006 2.76539 9.41006C2.76539 9.41006 2.76539 9.42006 2.76539 9.43006C2.77539 9.39006 2.78539 9.36006 2.79539 9.32006C2.79539 9.32006 2.79539 9.29006 2.80539 9.28006C2.82539 9.21006 2.76539 9.13006 2.70539 9.10006C2.62539 9.07006 2.51539 9.10006 2.48539 9.19006C2.46539 9.23006 2.45539 9.28006 2.44539 9.32006C2.41539 9.42006 2.37539 9.52006 2.34539 9.62006C2.35539 9.56006 2.36539 9.50006 2.38539 9.44006C2.38539 9.44006 2.38539 9.44006 2.38539 9.43006C2.40539 9.36006 2.34539 9.28006 2.28539 9.25006C2.24539 9.23006 2.19539 9.23006 2.15539 9.25006C2.11539 9.26006 2.07539 9.30006 2.06539 9.34006C2.06539 9.34006 2.06539 9.35006 2.06539 9.36006C2.02539 9.48006 1.98539 9.59006 1.94539 9.71006C1.87539 9.93006 1.80539 10.1501 1.73539 10.3701C1.71539 10.4101 1.70539 10.4601 1.69539 10.5001C1.73539 10.3101 1.76539 10.1201 1.79539 9.92006C1.81539 9.82006 1.82539 9.72006 1.84539 9.61006C1.84539 9.60006 1.84539 9.58006 1.84539 9.57006C1.86539 9.54006 1.88539 9.50006 1.90539 9.47006C1.93539 9.42006 1.96539 9.37006 1.98539 9.32006C2.01539 9.26006 2.05539 9.21006 2.10539 9.16006C2.14539 9.12006 2.20539 9.09006 2.25539 9.06006C2.28539 9.08006 2.30539 9.09006 2.34539 9.09006C2.35539 9.09006 2.37539 9.09006 2.39539 9.09006C2.41539 9.09006 2.43539 9.09006 2.46539 9.09006C2.56539 9.09006 2.65539 9.05006 2.73539 9.00006C2.81539 8.96006 2.88539 8.91006 2.95539 8.87006C2.99539 8.85006 3.03539 8.82006 3.07539 8.80006V8.82006C3.07539 8.82006 3.09539 8.90006 3.11539 8.93006L3.12539 8.95006ZM3.37539 13.0601C3.37539 13.0601 3.35539 13.0501 3.34539 13.0401C3.35539 13.0401 3.37539 13.0601 3.38539 13.0701L3.37539 13.0601ZM5.66539 15.8201C5.66539 15.8201 5.73539 15.7701 5.76539 15.7401C5.78539 15.7201 5.79539 15.7101 5.81539 15.7001C5.83539 15.6701 5.86539 15.6501 5.89539 15.6201C5.94539 15.5701 6.01539 15.5401 6.07539 15.5001C6.03539 15.5301 5.99539 15.5501 5.95539 15.5801C5.86539 15.6501 5.78539 15.7201 5.70539 15.8001C5.69539 15.8101 5.68539 15.8201 5.67539 15.8401C5.67539 15.8401 5.67539 15.8201 5.66539 15.8201ZM11.1054 15.0001C11.1054 15.0001 11.1254 14.9701 11.1354 14.9501C11.1354 14.9701 11.1554 14.9901 11.1654 15.0101C11.1354 15.0101 11.1154 15.0101 11.0854 15.0201L11.1054 15.0001ZM11.4454 13.7301C11.4054 13.8001 11.3654 13.8601 11.3254 13.9301C11.3254 13.9101 11.3354 13.8901 11.3454 13.8701C11.3654 13.8001 11.3754 13.7301 11.3954 13.6601C11.4154 13.5801 11.4354 13.5001 11.4454 13.4101C11.4454 13.3601 11.4454 13.3201 11.4154 13.2801C11.4154 13.2801 11.4054 13.2801 11.3954 13.2701C11.4354 13.2501 11.4654 13.2301 11.4754 13.1901C11.5354 13.0601 11.5654 12.9101 11.6054 12.7701C11.6354 12.6401 11.6754 12.5101 11.7054 12.3901C11.7554 12.1701 11.8154 11.9401 11.8654 11.7201C11.8854 11.6301 11.9054 11.5501 11.9354 11.4601C11.9054 11.6101 11.8854 11.7601 11.8554 11.9101C11.8154 12.1701 11.7654 12.4301 11.7254 12.6901C11.7054 12.8001 11.6854 12.9201 11.6754 13.0301C11.6554 13.1201 11.6454 13.2201 11.6354 13.3101C11.6354 13.3501 11.6354 13.3901 11.6354 13.4301C11.6154 13.4501 11.5854 13.4601 11.5654 13.4901C11.5254 13.5701 11.4854 13.6401 11.4454 13.7101V13.7301ZM12.0854 15.0501C12.0554 14.9901 12.0154 14.9401 11.9754 14.8801C11.9854 14.8601 12.0054 14.8501 12.0154 14.8301C12.0354 14.8101 12.0454 14.7901 12.0654 14.7601C12.0654 14.8001 12.0654 14.8401 12.0654 14.8801C12.0654 14.9101 12.0654 14.9401 12.0654 14.9701C12.0654 15.0001 12.0754 15.0301 12.0954 15.0501C12.0954 15.0501 12.0954 15.0501 12.0854 15.0501C12.0854 15.0501 12.0854 15.0501 12.0854 15.0401V15.0501ZM12.4454 15.5701C12.4454 15.5701 12.4454 15.5701 12.4454 15.5801C12.4454 15.5801 12.4354 15.5701 12.4254 15.5601C12.4254 15.5601 12.4254 15.5601 12.4354 15.5601L12.4454 15.5701ZM13.2654 15.5701C13.2654 15.5701 13.2754 15.5801 13.2854 15.5901C13.2854 15.5901 13.2654 15.5901 13.2654 15.6001C13.2654 15.6001 13.2654 15.5901 13.2654 15.5801V15.5701ZM13.2254 14.3301C13.2254 14.3301 13.1854 14.3701 13.1754 14.3801V14.3601C13.1754 14.3201 13.1754 14.2701 13.1754 14.2301C13.1754 14.2001 13.1354 14.1701 13.1054 14.1601C13.1054 14.1601 13.1154 14.1601 13.1254 14.1601C13.1454 14.1501 13.1754 14.1301 13.1954 14.1201C13.2354 14.0901 13.2654 14.0501 13.2854 14.0001C13.2954 13.9801 13.3154 13.9601 13.3254 13.9301C13.3154 14.0001 13.3054 14.0601 13.3154 14.1301C13.3154 14.1701 13.3454 14.2001 13.3754 14.2301C13.3254 14.2601 13.2854 14.3001 13.2354 14.3301H13.2254ZM13.6854 12.0601C13.7454 11.8701 13.8154 11.6801 13.8754 11.4901C13.8854 11.5101 13.8954 11.5201 13.9154 11.5401C13.9154 11.5401 13.9154 11.5601 13.9054 11.5701C13.8254 11.7301 13.7554 11.9001 13.6854 12.0701V12.0601ZM14.6954 11.9701C14.6954 11.9701 14.6954 12.0001 14.6854 12.0201C14.6854 12.0201 14.6854 12.0301 14.6854 12.0401C14.6754 12.0801 14.6654 12.1101 14.6754 12.1401C14.6554 12.1601 14.6454 12.1801 14.6254 12.2001C14.6154 12.2201 14.6054 12.2401 14.5954 12.2601C14.6254 12.1601 14.6554 12.0601 14.7054 11.9701H14.6954ZM15.2754 11.8001C15.2754 11.8001 15.2954 11.8001 15.3054 11.8001C15.2654 11.8401 15.2254 11.8801 15.1854 11.9201C15.2154 11.8801 15.2454 11.8401 15.2754 11.7901V11.8001ZM16.1354 10.1401C16.1354 10.1401 16.1554 10.2301 16.1754 10.2701C16.1554 10.2501 16.1354 10.2401 16.1154 10.2201C16.1154 10.2201 16.1054 10.2201 16.0954 10.2201C16.0754 10.1501 16.0454 10.0801 16.0354 10.0101C16.0054 9.90006 15.9754 9.78006 15.9554 9.66006V9.63006C15.9754 9.70006 16.0054 9.76006 16.0354 9.83006C16.0754 9.93006 16.1154 10.0401 16.1454 10.1401H16.1354ZM5.14539 0.430059C5.14539 0.430059 5.15539 0.430059 5.16539 0.440059C5.16539 0.450059 5.14539 0.460059 5.13539 0.470059C5.11539 0.520059 5.10539 0.570059 5.08539 0.620059C5.08539 0.620059 5.08539 0.640059 5.07539 0.640059C5.08539 0.610059 5.09539 0.570059 5.10539 0.540059C5.10539 0.500059 5.12539 0.460059 5.14539 0.410059V0.430059ZM4.74539 1.24006C4.74539 1.24006 4.74539 1.25006 4.73539 1.26006C4.73539 1.25006 4.75539 1.23006 4.75539 1.22006C4.69539 1.33006 4.62539 1.43006 4.56539 1.54006C4.61539 1.44006 4.68539 1.34006 4.74539 1.25006V1.24006ZM3.03539 8.38006C3.01539 8.41006 2.99539 8.45006 2.96539 8.48006C2.93539 8.50006 2.90539 8.52006 2.87539 8.54006C2.93539 8.49006 2.98539 8.43006 3.03539 8.37006V8.38006ZM0.95539 12.3701C0.95539 12.3701 0.99539 12.3201 1.02539 12.3001C1.05539 12.2601 1.09539 12.2201 1.12539 12.1801C1.12539 12.1901 1.12539 12.2101 1.11539 12.2201C1.11539 12.2201 1.11539 12.2001 1.12539 12.2001C1.12539 12.2001 1.12539 12.2201 1.11539 12.2301C1.10539 12.2601 1.08539 12.2801 1.07539 12.3101C1.04539 12.3401 1.02539 12.3801 1.02539 12.4301C1.02539 12.4301 1.02539 12.4301 1.02539 12.4501C1.02539 12.4501 1.02539 12.4501 1.01539 12.4501C0.98539 12.4501 0.95539 12.4501 0.92539 12.4401C0.93539 12.4201 0.94539 12.4001 0.96539 12.3901L0.95539 12.3701ZM0.94539 12.7701C0.94539 12.7701 0.99539 12.7701 1.01539 12.7701C1.01539 12.7701 1.01539 12.7701 1.00539 12.7701C1.00539 12.7701 1.01539 12.7701 1.02539 12.7701C1.02539 12.7701 1.03539 12.7701 1.04539 12.7701C1.11539 12.7701 1.18539 12.7901 1.24539 12.7901C1.27539 12.8101 1.29539 12.8201 1.32539 12.8401C1.19539 12.8201 1.06539 12.8001 0.94539 12.7601V12.7701ZM3.17539 13.5001C3.12539 13.4701 3.06539 13.4401 3.00539 13.4101C3.02539 13.4101 3.03539 13.4301 3.05539 13.4401C3.09539 13.4601 3.14539 13.4901 3.18539 13.5201C3.18539 13.5201 3.17539 13.5201 3.16539 13.5101L3.17539 13.5001ZM4.21539 14.3501C4.21539 14.3501 4.22539 14.3601 4.23539 14.3701C4.23539 14.3701 4.22539 14.3601 4.21539 14.3501ZM5.82539 16.3801C5.82539 16.3801 5.82539 16.3701 5.82539 16.3601C5.84539 16.3401 5.87539 16.3301 5.89539 16.3101C5.91539 16.3001 5.93539 16.2801 5.95539 16.2601C6.00539 16.2201 6.05539 16.1901 6.11539 16.1601C6.12539 16.1601 6.14539 16.1601 6.15539 16.1501C6.04539 16.2201 5.94539 16.3001 5.83539 16.3801H5.82539ZM11.5654 15.0101C11.5654 15.0101 11.5054 15.0101 11.4854 15.0101C11.5254 14.9601 11.5554 14.9101 11.5854 14.8501C11.5854 14.8501 11.5854 14.8401 11.5954 14.8301C11.5954 14.8501 11.5954 14.8701 11.6054 14.8901C11.6054 14.9101 11.6254 14.9201 11.6354 14.9301C11.6354 14.9501 11.6354 14.9701 11.6454 14.9801C11.6454 14.9901 11.6654 15.0001 11.6654 15.0201C11.6354 15.0201 11.5954 15.0201 11.5654 15.0101ZM13.3654 16.5301C13.3654 16.5301 13.3854 16.5301 13.3854 16.5201C13.3854 16.5201 13.4054 16.5101 13.4054 16.5001C13.4154 16.5401 13.4354 16.5901 13.4554 16.6301C13.4254 16.6001 13.3954 16.5601 13.3654 16.5301ZM14.4254 17.3801C14.4254 17.3801 14.3954 17.3901 14.3754 17.4001C14.3454 17.3801 14.3154 17.3701 14.2954 17.3501C14.2454 17.3201 14.2054 17.2901 14.1654 17.2501C14.1654 17.2501 14.1754 17.2501 14.1854 17.2301C14.2054 17.2101 14.2254 17.1801 14.2354 17.1501C14.2554 17.2201 14.2954 17.2801 14.3654 17.3201C14.4054 17.3401 14.4354 17.3401 14.4754 17.3401C14.4554 17.3501 14.4454 17.3601 14.4254 17.3801ZM14.6554 16.5601C14.6554 16.5601 14.7154 16.6001 14.7454 16.6301C14.7554 16.6601 14.7654 16.6901 14.7954 16.7101C14.7954 16.7301 14.7754 16.7501 14.7754 16.7601C14.7754 16.7401 14.7654 16.7201 14.7554 16.7101C14.7454 16.6601 14.7054 16.6101 14.6554 16.5901C14.6054 16.5701 14.5454 16.5701 14.4954 16.6001C14.4954 16.5901 14.4954 16.5701 14.4954 16.5601C14.4954 16.5401 14.4954 16.5101 14.4954 16.4901C14.5554 16.5201 14.6154 16.5401 14.6754 16.5701L14.6554 16.5601ZM13.8454 16.0701C13.9354 16.1401 14.0354 16.2101 14.1254 16.2701C14.1454 16.2701 14.1554 16.2901 14.1754 16.3001C14.1554 16.3201 14.1354 16.3401 14.1254 16.3701C14.1054 16.4101 14.1054 16.4501 14.0954 16.4901C14.0854 16.5601 14.0654 16.6201 14.0554 16.6801V16.7001C14.0554 16.6701 14.0554 16.6401 14.0454 16.6101C14.0454 16.5501 14.0354 16.4901 14.0354 16.4301C14.0354 16.3901 14.0354 16.3601 14.0354 16.3201C14.0354 16.2801 14.0354 16.2401 14.0154 16.2001C13.9954 16.1601 13.9654 16.1301 13.9254 16.1101C13.8754 16.0901 13.7954 16.0901 13.7554 16.1301C13.7354 16.1501 13.7154 16.1701 13.7054 16.2001C13.6954 16.1501 13.6754 16.0901 13.6654 16.0401C13.6454 15.9701 13.6354 15.9001 13.6254 15.8301C13.7054 15.9101 13.7954 15.9901 13.8854 16.0601L13.8454 16.0701ZM13.7754 14.0001C13.8054 13.9501 13.8354 13.8901 13.8554 13.8401C13.9054 13.7401 13.9454 13.6401 13.9954 13.5401C13.9954 13.5601 13.9954 13.5701 13.9954 13.5901C13.9954 13.6101 13.9954 13.6201 13.9954 13.6401C13.9954 13.6901 14.0154 13.7301 14.0354 13.7701C14.0554 13.8001 14.0754 13.8201 14.1054 13.8301C14.0854 13.8301 14.0754 13.8301 14.0554 13.8501C13.9554 13.9001 13.8554 13.9501 13.7654 14.0001H13.7754ZM14.3754 13.7301C14.3754 13.7301 14.3954 13.6901 14.4054 13.6701C14.4354 13.6101 14.4654 13.5401 14.4854 13.4801C14.4854 13.4801 14.4854 13.4901 14.4854 13.5001C14.4854 13.5501 14.4954 13.6001 14.5254 13.6501C14.5254 13.6601 14.5454 13.6601 14.5554 13.6701C14.4954 13.6901 14.4254 13.7101 14.3654 13.7301H14.3754ZM16.7354 10.5501C16.7354 10.5501 16.7354 10.5701 16.7454 10.5901C16.7454 10.5801 16.7454 10.5701 16.7354 10.5501Z" fill="#EF3A42"/>
</g>
<defs>
<clipPath id="clip0_3237_2065">
<rect width="16.81" height="17.74" fill="white" transform="translate(0.0952148)"/>
</clipPath>
</defs>
</svg>
