<svg width="19" height="20" viewBox="0 0 19 20" fill="none" xmlns="http://www.w3.org/2000/svg">
<g id="a" clip-path="url(#clip0_3237_2077)">
<path id="Vector" d="M18.7703 11.6599C18.7503 11.5699 18.6503 11.5099 18.5703 11.4899C18.4403 11.4499 18.3003 11.4299 18.1603 11.4199C18.1003 11.4199 18.0403 11.4199 17.9803 11.4199C17.9003 11.4199 17.8203 11.4199 17.7403 11.4199C17.5803 11.4199 17.4203 11.4399 17.2603 11.4699C17.1203 11.4899 16.9903 11.5399 16.8503 11.5699C16.7303 11.5999 16.6003 11.6299 16.4803 11.6499C16.3703 11.6699 16.2603 11.6999 16.1603 11.7399C16.0703 11.7699 15.9903 11.7999 15.9003 11.8299C15.8403 11.8499 15.7803 11.8699 15.7303 11.8899C15.6803 11.9099 15.6303 11.9399 15.5903 11.9699C15.5203 11.9199 15.4603 11.8799 15.3903 11.8299C15.2203 11.7099 15.0503 11.5899 14.8803 11.4799C14.7003 11.3599 14.5303 11.2399 14.3603 11.1099C14.1203 10.9299 13.8703 10.7399 13.6203 10.5699C13.3803 10.4099 13.1203 10.2499 12.8803 10.0899C12.5903 9.89995 12.3103 9.68995 12.0203 9.49995C11.8703 9.39995 11.7303 9.30995 11.5803 9.20995C11.7003 9.15995 11.8203 9.09995 11.9403 9.04995C12.1503 8.94995 12.3503 8.84995 12.5503 8.73995C12.8003 8.59995 13.0503 8.46995 13.2903 8.30995C13.5203 8.15995 13.7703 8.03995 14.0203 7.90995C14.3003 7.76995 14.5803 7.63995 14.8503 7.49995C14.9903 7.42995 15.1203 7.34995 15.2503 7.25995C15.3203 7.21995 15.3803 7.17995 15.4603 7.13995C15.5703 7.08995 15.6803 7.03995 15.7903 6.99995C15.9003 6.95995 16.0103 6.90995 16.1103 6.85995C16.1903 6.89995 16.2803 6.93995 16.3603 6.97995C16.4303 7.01995 16.4903 7.05995 16.5503 7.09995C16.6703 7.16995 16.8003 7.23995 16.9203 7.30995C17.0303 7.36995 17.1403 7.42995 17.2503 7.47995C17.3903 7.54995 17.5403 7.59995 17.6803 7.65995C17.8603 7.72995 18.0503 7.72995 18.2303 7.68995C18.3003 7.66995 18.3803 7.64995 18.4403 7.61995C18.5203 7.58995 18.5803 7.52995 18.6303 7.45995C18.6703 7.40995 18.6903 7.32995 18.7203 7.26995C18.7303 7.22995 18.7403 7.18995 18.7403 7.14995C18.7403 7.08995 18.7203 7.03995 18.7003 6.98995C18.6903 6.94995 18.6603 6.90995 18.6303 6.87995C18.6103 6.84995 18.5803 6.81995 18.5603 6.78995C18.5003 6.71995 18.4403 6.66995 18.3703 6.60995C18.2803 6.52995 18.1803 6.45995 18.0803 6.38995C17.9503 6.29995 17.8303 6.20995 17.7003 6.10995C17.6303 6.05995 17.5603 6.00995 17.4903 5.95995C17.4503 5.92995 17.4103 5.90995 17.3803 5.88995C17.4403 5.85995 17.5003 5.82995 17.5603 5.78995C17.6803 5.70995 17.8003 5.61995 17.9003 5.50995C17.9903 5.40995 18.0603 5.29995 18.1203 5.17995C18.1403 5.13995 18.1603 5.09995 18.1703 5.05995C18.1803 5.00995 18.1903 4.95995 18.1903 4.90995C18.1903 4.82995 18.1903 4.74995 18.1603 4.66995C18.1303 4.54995 18.0503 4.44995 17.9403 4.37995C17.8703 4.33995 17.7903 4.31995 17.7003 4.31995C17.6503 4.31995 17.6103 4.31995 17.5603 4.32995C17.4503 4.34995 17.3403 4.36995 17.2403 4.39995C17.1103 4.43995 16.9903 4.48995 16.8703 4.52995C16.7203 4.57995 16.5703 4.64995 16.4303 4.71995C16.4103 4.71995 16.4003 4.73995 16.3803 4.73995C16.4103 4.52995 16.4303 4.30995 16.4203 4.09995C16.4203 4.00995 16.4003 3.91995 16.3803 3.82995C16.3703 3.73995 16.3603 3.65995 16.3603 3.57995C16.3603 3.52995 16.3603 3.47995 16.3503 3.42995C16.3503 3.39995 16.3303 3.35995 16.3203 3.32995C16.3203 3.30995 16.3203 3.28995 16.3103 3.26995C16.2903 3.14995 16.2303 3.03995 16.1803 2.92995C16.1803 2.92995 16.1803 2.91995 16.1803 2.90995C16.1203 2.78995 16.0503 2.67995 15.9503 2.58995C15.9103 2.54995 15.8503 2.51995 15.7903 2.48995C15.7603 2.48995 15.7403 2.47995 15.7103 2.47995C15.6503 2.47995 15.5903 2.49995 15.5403 2.54995C15.4903 2.58995 15.4503 2.64995 15.4203 2.69995C15.3903 2.74995 15.3703 2.78995 15.3403 2.83995C15.2803 2.95995 15.2203 3.08995 15.1803 3.21995C15.1303 3.34995 15.0803 3.48995 15.0403 3.61995C14.9903 3.77995 14.9303 3.94995 14.9003 4.11995C14.8803 4.21995 14.8803 4.32995 14.8803 4.42995C14.8803 4.57995 14.8803 4.72995 14.8703 4.88995C14.8703 5.02995 14.8503 5.16995 14.8303 5.30995C14.8303 5.35995 14.8103 5.40995 14.8103 5.45995C14.8103 5.50995 14.8003 5.56995 14.8003 5.61995C14.8003 5.61995 14.8003 5.61995 14.8003 5.62995C14.7703 5.63995 14.7503 5.65995 14.7203 5.66995C14.6303 5.70995 14.5403 5.75995 14.4503 5.79995C14.4203 5.80995 14.4103 5.83995 14.4003 5.86995C14.3203 5.90995 14.2403 5.94995 14.1603 5.98995C14.1003 6.01995 14.0403 6.04995 13.9803 6.07995C13.8803 6.12995 13.7803 6.19995 13.6803 6.25995C13.5503 6.33995 13.4203 6.41995 13.2803 6.47995C12.9903 6.60995 12.7103 6.75995 12.4303 6.87995C12.1803 6.98995 11.9303 7.09995 11.7003 7.22995C11.5203 7.32995 11.3503 7.44995 11.1803 7.54995C11.0303 7.64995 10.8703 7.73995 10.7203 7.83995C10.6903 7.85995 10.6603 7.86995 10.6303 7.88995C10.6303 7.84995 10.6303 7.80995 10.6303 7.76995C10.6303 7.57995 10.6403 7.37995 10.6403 7.18995C10.6403 6.94995 10.6403 6.70995 10.6503 6.46995C10.6503 6.14995 10.6703 5.82995 10.6803 5.49995C10.6803 5.36995 10.6803 5.23995 10.6803 5.10995C10.6803 4.93995 10.7003 4.75995 10.6903 4.58995C10.6903 4.42995 10.6803 4.26995 10.6803 4.11995C10.6803 3.93995 10.6803 3.76995 10.6703 3.58995C10.6703 3.45995 10.6603 3.32995 10.6503 3.20995V3.18995C10.6903 3.14995 10.7403 3.10995 10.7803 3.06995C10.9103 2.94995 11.0603 2.83995 11.1903 2.71995C11.2403 2.66995 11.2903 2.61995 11.3503 2.55995C11.4303 2.47995 11.5203 2.40995 11.6003 2.32995C11.6703 2.26995 11.7403 2.19995 11.8003 2.12995C11.8503 2.05995 11.9103 1.98995 11.9603 1.91995C12.0503 1.79995 12.1503 1.70995 12.2503 1.59995C12.2803 1.56995 12.3003 1.52995 12.3303 1.49995C12.3503 1.45995 12.3703 1.41995 12.3803 1.37995C12.4103 1.29995 12.4203 1.21995 12.4503 1.14995C12.4603 1.10995 12.4703 1.06995 12.4703 1.02995C12.4703 0.979946 12.4503 0.929946 12.4303 0.889946C12.4103 0.859946 12.3803 0.829946 12.3503 0.799946C12.3103 0.769946 12.2703 0.739946 12.2303 0.709946C12.1603 0.669946 12.0703 0.629946 11.9903 0.599946C11.9403 0.579946 11.8803 0.579946 11.8303 0.569946C11.8003 0.569946 11.7703 0.569946 11.7403 0.569946C11.7303 0.569946 11.7203 0.569946 11.7103 0.569946C11.4703 0.589946 11.2503 0.679946 11.0503 0.799946C10.8403 0.919946 10.6703 1.08995 10.5003 1.25995C10.5003 1.23995 10.5003 1.20995 10.5003 1.18995C10.4903 1.09995 10.4803 1.00995 10.4603 0.929946C10.4403 0.839946 10.4203 0.749946 10.4003 0.669946C10.3803 0.579946 10.3403 0.499946 10.2903 0.419946C10.2503 0.349946 10.1903 0.269946 10.1303 0.209946C10.0703 0.159946 10.0103 0.129946 9.94027 0.0999463C9.89027 0.0799463 9.83027 0.0699463 9.78027 0.0699463C9.76027 0.0699463 9.75027 0.0699463 9.73027 0.0699463C9.66027 0.0699463 9.60027 0.0999463 9.53027 0.119946C9.46027 0.139946 9.40027 0.159946 9.34027 0.199946C9.28027 0.239946 9.23027 0.299946 9.19027 0.359946C9.16027 0.409946 9.14027 0.469946 9.12027 0.519946C9.09027 0.589946 9.07027 0.649946 9.06027 0.719946C9.05027 0.799946 9.04027 0.879946 9.03027 0.959946C9.03027 0.949946 9.03027 0.929946 9.03027 0.909946C9.02027 1.00995 9.00027 1.10995 8.99027 1.20995C8.99027 1.25995 8.99027 1.30995 8.98027 1.35995C8.92027 1.29995 8.86027 1.22995 8.79027 1.17995C8.64027 1.04995 8.47027 0.929946 8.31027 0.829946C8.17027 0.739946 8.03027 0.679946 7.89027 0.599946C7.77027 0.539946 7.64027 0.469946 7.49027 0.469946C7.47027 0.469946 7.45027 0.469946 7.42027 0.469946C7.33027 0.479946 7.26027 0.529946 7.19027 0.579946C7.12027 0.629946 7.06027 0.669946 7.01027 0.739946C6.96027 0.809946 6.96027 0.899946 6.96027 0.989946C6.96027 1.02995 6.96027 1.07995 6.97027 1.11995C6.97027 1.16995 6.99027 1.20995 7.01027 1.25995C7.06027 1.38995 7.13027 1.49995 7.21027 1.60995C7.20027 1.59995 7.19027 1.58995 7.18027 1.56995C7.26027 1.68995 7.34027 1.80995 7.44027 1.91995C7.51027 2.00995 7.60027 2.08995 7.69027 2.16995C7.75027 2.22995 7.81027 2.28995 7.87027 2.33995C7.96027 2.42995 8.07027 2.49995 8.17027 2.57995C8.33027 2.69995 8.50027 2.80995 8.66027 2.91995C8.73027 2.96995 8.81027 3.01995 8.89027 3.05995C8.89027 3.11995 8.89027 3.17995 8.89027 3.23995V4.15995C8.89027 4.27995 8.88027 4.40995 8.88027 4.52995C8.88027 4.73995 8.88027 4.95995 8.88027 5.16995C8.88027 5.33995 8.88027 5.50995 8.88027 5.67995C8.88027 5.85995 8.88027 6.03995 8.87027 6.20995C8.87027 6.21995 8.87027 6.23995 8.87027 6.24995C8.87027 6.45995 8.87027 6.66995 8.85027 6.87995C8.84027 7.05995 8.83027 7.23995 8.82027 7.40995C8.82027 7.40995 8.80027 7.39995 8.79027 7.38995C8.28027 7.03995 7.76027 6.70995 7.23027 6.38995C7.00027 6.24995 6.77027 6.10995 6.54027 5.95995C6.31027 5.81995 6.07027 5.67995 5.83027 5.54995C5.73027 5.49995 5.63027 5.43995 5.53027 5.38995C5.51027 5.25995 5.48027 5.12995 5.46027 4.99995C5.44027 4.84995 5.42027 4.69995 5.40027 4.54995C5.34027 4.11995 5.24027 3.69995 5.11027 3.27995C5.05027 3.08995 4.97027 2.89995 4.89027 2.71995C4.83027 2.57995 4.76027 2.45995 4.67027 2.32995C4.60027 2.21995 4.50027 2.11995 4.39027 2.03995C4.32027 1.98995 4.23027 1.95995 4.14027 1.94995C4.13027 1.94995 4.12027 1.94995 4.11027 1.94995C4.04027 1.94995 3.96027 1.96995 3.90027 1.99995C3.82027 2.02995 3.76027 2.08995 3.71027 2.15995C3.66027 2.21995 3.63027 2.28995 3.60027 2.35995C3.54027 2.47995 3.48027 2.59995 3.46027 2.72995C3.41027 2.95995 3.42027 3.19995 3.44027 3.43995C3.44027 3.59995 3.46027 3.75995 3.48027 3.90995C3.49027 3.99995 3.52027 4.07995 3.53027 4.16995C3.53027 4.16995 3.51027 4.16995 3.50027 4.15995C3.45027 4.13995 3.41027 4.11995 3.36027 4.08995C3.32027 4.06995 3.28027 4.05995 3.24027 4.04995C3.17027 4.01995 3.10027 3.97995 3.02027 3.94995C2.94027 3.90995 2.85027 3.87995 2.76027 3.85995C2.68027 3.83995 2.61027 3.82995 2.53027 3.82995C2.53027 3.82995 2.52027 3.82995 2.51027 3.82995C2.46027 3.82995 2.42027 3.83995 2.38027 3.85995C2.34027 3.85995 2.30027 3.85995 2.26027 3.86995C2.19027 3.88995 2.13027 3.93995 2.08027 3.98995C2.03027 4.03995 1.99027 4.09995 1.97027 4.16995C1.96027 4.21995 1.97027 4.27995 1.97027 4.33995C1.97027 4.37995 1.97027 4.42995 1.97027 4.46995C1.97027 4.51995 1.99027 4.56995 2.01027 4.61995C2.03027 4.66995 2.05027 4.70995 2.08027 4.75995C2.11027 4.80995 2.14027 4.85995 2.18027 4.89995C2.28027 5.01995 2.41027 5.12995 2.54027 5.21995C2.46027 5.23995 2.38027 5.24995 2.30027 5.26995C2.17027 5.29995 2.03027 5.33995 1.91027 5.39995C1.78027 5.45995 1.66027 5.54995 1.54027 5.62995C1.42027 5.71995 1.30027 5.83995 1.25027 5.97995C1.22027 6.06995 1.20027 6.16995 1.20027 6.25995C1.20027 6.34995 1.20027 6.43995 1.24027 6.52995C1.27027 6.59995 1.33027 6.66995 1.39027 6.71995C1.46027 6.76995 1.54027 6.80995 1.62027 6.83995C1.71027 6.87995 1.81027 6.89995 1.90027 6.92995C1.97027 6.94995 2.05027 6.96995 2.12027 6.97995C2.28027 7.00995 2.44027 6.98995 2.60027 6.98995C2.76027 6.98995 2.92027 7.01995 3.08027 7.01995C3.18027 7.01995 3.29027 7.01995 3.39027 6.98995C3.47027 6.96995 3.55027 6.94995 3.63027 6.93995C3.74027 6.91995 3.85027 6.88995 3.96027 6.83995C4.05027 6.79995 4.14027 6.76995 4.23027 6.71995C4.29027 6.68995 4.35027 6.66995 4.41027 6.64995C4.51027 6.71995 4.61027 6.78995 4.72027 6.85995C4.92027 6.98995 5.12027 7.11995 5.33027 7.23995C5.50027 7.33995 5.66027 7.43995 5.83027 7.53995C5.99027 7.64995 6.15027 7.75995 6.31027 7.87995C6.48027 8.00995 6.64027 8.13995 6.81027 8.25995C7.08027 8.45995 7.38027 8.60995 7.66027 8.77995C7.87027 8.90995 8.08027 9.04995 8.29027 9.17995C8.20027 9.22995 8.10027 9.27995 8.01027 9.32995C7.73027 9.46995 7.45027 9.60995 7.17027 9.74995C6.91027 9.87995 6.66027 10.0299 6.41027 10.1699C6.15027 10.3199 5.89027 10.4599 5.63027 10.5999C5.42027 10.7199 5.21027 10.8399 5.01027 10.9799C4.82027 11.1099 4.64027 11.2399 4.45027 11.3599C4.29027 11.4699 4.12027 11.5699 3.95027 11.6699C3.87027 11.7099 3.79027 11.7599 3.70027 11.8099C3.67027 11.7999 3.64027 11.7899 3.62027 11.7799C3.58027 11.7599 3.53027 11.7399 3.49027 11.7499C3.48027 11.7499 3.46027 11.7499 3.45027 11.7599C3.31027 11.7399 3.17027 11.7399 3.02027 11.7299C2.91027 11.7299 2.80027 11.7199 2.69027 11.7099C2.67027 11.7099 2.66027 11.7099 2.64027 11.7099C2.56027 11.6999 2.48027 11.6799 2.40027 11.6599C2.30027 11.6399 2.19027 11.6199 2.08027 11.6099C1.89027 11.5899 1.69027 11.5699 1.50027 11.5699C1.49027 11.5699 1.48027 11.5699 1.47027 11.5699C1.35027 11.5699 1.23027 11.5799 1.11027 11.5899C0.970273 11.5999 0.830273 11.5999 0.700273 11.6599C0.640273 11.6899 0.580273 11.7299 0.520273 11.7699C0.450273 11.8199 0.380273 11.8699 0.330273 11.9299C0.300273 11.9699 0.280273 12.0199 0.280273 12.0599C0.280273 12.1299 0.300273 12.1899 0.330273 12.2499C0.370273 12.3199 0.430273 12.3699 0.490273 12.4199C0.590273 12.5099 0.690273 12.5999 0.810273 12.6699C0.950273 12.7499 1.10027 12.7899 1.25027 12.8399C1.46027 12.8999 1.66027 12.9499 1.88027 12.9899C1.90027 12.9899 1.93027 12.9899 1.95027 12.9899C1.85027 13.0599 1.75027 13.1399 1.66027 13.2099C1.56027 13.2899 1.47027 13.3599 1.38027 13.4499C1.29027 13.5399 1.20027 13.6399 1.13027 13.7499C1.09027 13.7999 1.06027 13.8599 1.03027 13.9199C0.990273 14.0099 0.970273 14.0999 0.960273 14.1999C0.960273 14.2999 0.990273 14.3999 1.06027 14.4599C1.14027 14.5299 1.24027 14.5499 1.34027 14.5599C1.51027 14.5799 1.67027 14.5299 1.83027 14.4799C1.97027 14.4399 2.10027 14.3799 2.24027 14.3199C2.41027 14.2499 2.58027 14.1699 2.74027 14.0799C2.84027 14.0199 2.94027 13.9499 3.04027 13.8899C3.02027 13.9499 3.01027 13.9999 2.99027 14.0499C2.95027 14.1799 2.91027 14.2999 2.87027 14.4299C2.83027 14.5799 2.81027 14.7299 2.78027 14.8699C2.77027 14.9399 2.76027 15.0099 2.75027 15.0799C2.74027 15.1699 2.75027 15.2699 2.75027 15.3599C2.75027 15.4699 2.73027 15.5799 2.75027 15.6799C2.75027 15.7399 2.77027 15.7999 2.80027 15.8499C2.83027 15.9099 2.87027 15.9699 2.91027 16.0199C2.97027 16.0999 3.03027 16.1999 3.13027 16.2299C3.28027 16.2799 3.43027 16.1999 3.54027 16.1099C3.62027 16.0499 3.68027 15.9699 3.74027 15.8899C3.78027 15.8399 3.82027 15.7799 3.86027 15.7199C3.98027 15.5399 4.08027 15.3599 4.18027 15.1699C4.29027 14.9499 4.35027 14.7199 4.40027 14.4899C4.42027 14.3899 4.43027 14.2799 4.44027 14.1799C4.46027 14.0699 4.49027 13.9599 4.51027 13.8399C4.55027 13.6999 4.59027 13.5599 4.62027 13.4099C4.64027 13.3399 4.64027 13.2699 4.65027 13.1999C4.85027 13.0799 5.05027 12.9599 5.24027 12.8299C5.38027 12.7299 5.52027 12.6399 5.67027 12.5399C5.81027 12.4499 5.95027 12.3599 6.09027 12.2799C6.38027 12.0999 6.67027 11.9099 6.96027 11.7199C7.24027 11.5399 7.53027 11.3599 7.81027 11.1899C8.10027 11.0099 8.39027 10.8199 8.67027 10.6499C8.68027 10.6499 8.70027 10.6399 8.71027 10.6299C8.70027 10.8399 8.70027 11.0499 8.69027 11.2599C8.69027 11.4499 8.67027 11.6399 8.67027 11.8299C8.67027 12.0799 8.67027 12.3199 8.67027 12.5699C8.67027 12.9399 8.67027 13.3099 8.67027 13.6699C8.67027 14.0399 8.65027 14.3999 8.65027 14.7599C8.65027 15.0799 8.65027 15.3899 8.64027 15.7099C8.51027 15.8399 8.40027 15.9699 8.28027 16.1099C8.15027 16.2299 8.02027 16.3599 7.88027 16.4799C7.62027 16.7199 7.38027 16.9799 7.17027 17.2599C7.08027 17.3699 7.01027 17.4899 6.94027 17.6099C6.91027 17.6599 6.88027 17.7199 6.85027 17.7799C6.82027 17.8499 6.80027 17.9199 6.80027 17.9999C6.80027 18.0599 6.79027 18.1299 6.80027 18.1899C6.80027 18.2499 6.82027 18.3099 6.85027 18.3699C6.85027 18.3899 6.87027 18.3999 6.88027 18.4099C6.90027 18.4699 6.94027 18.5299 7.00027 18.5599C7.05027 18.5899 7.11027 18.5999 7.16027 18.6199C7.23027 18.6399 7.31027 18.6399 7.39027 18.6299C7.52027 18.6099 7.64027 18.5399 7.75027 18.4799C7.84027 18.4299 7.93027 18.3599 8.01027 18.2999C8.11027 18.2199 8.21027 18.1399 8.31027 18.0499C8.40027 17.9699 8.50027 17.8799 8.58027 17.7899C8.64027 17.7299 8.69027 17.6699 8.74027 17.6099C8.75027 17.6699 8.76027 17.7199 8.78027 17.7799C8.80027 17.8799 8.82027 17.9799 8.85027 18.0799C8.87027 18.1699 8.91027 18.2599 8.94027 18.3499C8.96027 18.4099 8.98027 18.4699 9.01027 18.5199C9.05027 18.5999 9.09027 18.6699 9.14027 18.7399C9.18027 18.7999 9.24027 18.8599 9.30027 18.8899C9.34027 18.9099 9.37027 18.9199 9.42027 18.9399C9.46027 18.9499 9.49027 18.9699 9.53027 18.9799C9.62027 19.0199 9.71027 18.9999 9.80027 18.9599C9.84027 18.9399 9.89027 18.9099 9.92027 18.8699C9.96027 18.8399 10.0003 18.7999 10.0303 18.7699C10.0703 18.7299 10.1003 18.6899 10.1303 18.6499C10.1603 18.6099 10.1803 18.5599 10.2003 18.5099C10.2303 18.4399 10.2503 18.3599 10.2703 18.2899C10.3303 18.0899 10.3603 17.8799 10.3803 17.6699C10.4203 17.7199 10.4603 17.7799 10.4903 17.8299C10.6103 17.9999 10.7403 18.1599 10.8903 18.3199C11.0103 18.4399 11.1503 18.5599 11.3003 18.6499C11.3503 18.6799 11.4103 18.7099 11.4703 18.7399C11.5303 18.7599 11.5803 18.7699 11.6403 18.7699C11.7003 18.7699 11.7603 18.7599 11.8203 18.7399C11.9103 18.7099 11.9803 18.6499 12.0203 18.5699C12.0303 18.5399 12.0403 18.5099 12.0503 18.4799C12.0503 18.4799 12.0603 18.4599 12.0703 18.4599C12.1103 18.3899 12.1203 18.2999 12.1203 18.2199C12.1203 18.1099 12.1203 17.9899 12.1003 17.8799C12.0603 17.5699 11.9503 17.2499 11.7703 16.9899C11.6603 16.8299 11.5403 16.6799 11.4303 16.5299C11.3003 16.3599 11.1603 16.1999 11.0003 16.0599C10.9403 15.9999 10.8703 15.9499 10.8103 15.8899C10.7503 15.8399 10.7003 15.7799 10.6503 15.7299C10.6503 15.7099 10.6503 15.6999 10.6503 15.6799C10.6503 15.5199 10.6303 15.3699 10.6203 15.2099C10.6003 14.9499 10.5903 14.6999 10.5803 14.4399C10.5603 13.9499 10.5403 13.4699 10.5503 12.9799C10.5503 12.7899 10.5603 12.5999 10.5603 12.4099C10.5603 12.2199 10.5503 12.0099 10.5503 11.8199C10.5503 11.5799 10.5503 11.3299 10.5603 11.0899C10.5603 10.9699 10.5603 10.8499 10.5703 10.7299C10.7503 10.8799 10.9303 11.0299 11.1103 11.1799C11.3503 11.3699 11.6003 11.5299 11.8503 11.6999C12.0503 11.8299 12.2403 11.9699 12.4403 12.0999C12.6203 12.2199 12.8003 12.3399 12.9803 12.4599C13.1103 12.5499 13.2403 12.6399 13.3803 12.7299C13.5803 12.8599 13.7803 12.9799 13.9803 13.0999C14.0203 13.1299 14.0703 13.1599 14.1103 13.1799C14.3903 13.3599 14.6703 13.5599 14.9403 13.7499C14.9503 13.7499 14.9603 13.7699 14.9803 13.7799C14.9803 13.8299 14.9903 13.8799 15.0003 13.9299C15.0103 14.0399 15.0203 14.1399 15.0403 14.2499C15.0603 14.4399 15.0803 14.6299 15.1103 14.8199C15.1403 15.0299 15.1803 15.2299 15.2603 15.4199C15.3203 15.5699 15.3803 15.7199 15.4603 15.8599C15.5403 15.9899 15.6403 16.1199 15.7803 16.1799C15.8503 16.2199 15.9403 16.2099 16.0103 16.1999C16.0803 16.1999 16.1503 16.1999 16.2203 16.1799C16.2703 16.1699 16.3203 16.1499 16.3603 16.1199C16.4103 16.0799 16.4503 16.0199 16.4803 15.9699C16.5103 15.9099 16.5303 15.8399 16.5403 15.7799C16.5503 15.7299 16.5603 15.6799 16.5703 15.6299C16.5903 15.4999 16.6003 15.3699 16.6103 15.2399C16.6103 15.0599 16.6103 14.8899 16.5903 14.7099C16.5703 14.5799 16.5403 14.4499 16.4903 14.3299C16.4803 14.2999 16.4703 14.2599 16.4603 14.2299C16.4803 14.2299 16.4903 14.2499 16.5103 14.2599C16.6203 14.3199 16.7203 14.3899 16.8303 14.4399C16.9403 14.4999 17.0403 14.5499 17.1603 14.5899C17.2003 14.5999 17.2503 14.6099 17.2903 14.6199C17.3503 14.6299 17.4103 14.6399 17.4703 14.6299C17.5203 14.6299 17.5603 14.6099 17.6103 14.5999C17.6303 14.5999 17.6403 14.5999 17.6603 14.5899C17.7003 14.5699 17.7303 14.5499 17.7703 14.5199C17.7903 14.5099 17.8003 14.4899 17.8103 14.4699C17.8303 14.4399 17.8503 14.4099 17.8703 14.3799C17.8803 14.3499 17.8803 14.3299 17.8903 14.2999C17.9203 14.2499 17.9303 14.1699 17.9303 14.1099C17.9303 14.0499 17.9003 13.9899 17.8903 13.9299C17.8903 13.9399 17.8903 13.9599 17.8903 13.9699C17.8803 13.9199 17.8703 13.8799 17.8503 13.8299C17.8303 13.7899 17.8103 13.7399 17.7903 13.6999C17.7703 13.6599 17.7603 13.6099 17.7303 13.5699C17.7003 13.5199 17.6703 13.4699 17.6303 13.4299C17.5603 13.3399 17.4703 13.2599 17.3803 13.1899C17.3003 13.1199 17.2103 13.0599 17.1303 12.9999C17.1103 12.9899 17.1003 12.9799 17.0803 12.9599C17.2503 12.9099 17.4203 12.8499 17.5903 12.7999C17.7903 12.7499 18.0003 12.7099 18.1903 12.6199C18.2703 12.5799 18.3503 12.5399 18.4203 12.4899C18.4903 12.4399 18.5603 12.3899 18.6203 12.3299C18.6703 12.2799 18.7103 12.2199 18.7503 12.1599C18.7903 12.0999 18.8203 12.0299 18.8503 11.9599C18.8603 11.9099 18.8803 11.8599 18.8803 11.8099C18.8803 11.7499 18.8803 11.6999 18.8603 11.6399L18.7703 11.6599ZM11.6403 0.859946C11.6403 0.859946 11.6603 0.859946 11.6703 0.859946C11.7203 0.859946 11.7603 0.859946 11.8103 0.859946C11.8403 0.859946 11.8603 0.869946 11.8903 0.879946C11.9103 0.879946 11.9303 0.899946 11.9603 0.909946C11.9603 0.909946 11.9603 0.909946 11.9503 0.909946C11.9003 0.929946 11.8603 0.959946 11.8303 1.00995C11.8303 1.01995 11.8203 1.02995 11.8103 1.03995C11.7703 1.07995 11.7403 1.11995 11.7003 1.15995C11.6803 1.17995 11.6603 1.18995 11.6303 1.20995C11.6703 1.16995 11.7103 1.11995 11.7203 1.05995C11.7403 0.979946 11.7003 0.899946 11.6303 0.859946H11.6403ZM11.5303 1.80995C11.4903 1.85995 11.4403 1.90995 11.3903 1.95995C11.3603 1.98995 11.3303 2.01995 11.3003 2.04995C11.3803 1.96995 11.4503 1.88995 11.5303 1.81995V1.80995ZM11.0503 1.12995C11.0503 1.12995 11.0503 1.12995 11.0403 1.12995H11.0503ZM10.7903 1.62995C10.7903 1.62995 10.7903 1.62995 10.7803 1.63995L10.7903 1.62995ZM7.34027 0.839946C7.34027 0.839946 7.30027 0.909946 7.29027 0.939946C7.29027 0.949946 7.29027 0.969946 7.28027 0.979946C7.28027 0.959946 7.28027 0.939946 7.28027 0.919946C7.28027 0.899946 7.28027 0.879946 7.28027 0.859946C7.28027 0.859946 7.35027 0.799946 7.39027 0.779946C7.37027 0.799946 7.36027 0.809946 7.35027 0.829946L7.34027 0.839946ZM7.78027 1.16995C7.78027 1.16995 7.71027 1.18995 7.68027 1.21995C7.68027 1.21995 7.68027 1.21995 7.67027 1.22995C7.66027 1.20995 7.65027 1.17995 7.64027 1.15995C7.64027 1.13995 7.64027 1.12995 7.64027 1.10995C7.64027 1.10995 7.64027 1.09995 7.64027 1.08995C7.67027 1.09995 7.71027 1.11995 7.74027 1.12995C7.78027 1.13995 7.81027 1.15995 7.85027 1.16995C7.83027 1.16995 7.81027 1.16995 7.80027 1.16995H7.78027ZM8.64027 2.11995C8.57027 2.04995 8.49027 1.96995 8.42027 1.89995C8.47027 1.92995 8.52027 1.96995 8.57027 1.99995C8.61027 2.02995 8.65027 2.04995 8.69027 2.07995C8.67027 2.07995 8.65027 2.09995 8.64027 2.11995ZM1.69027 6.15995C1.69027 6.15995 1.60027 6.19995 1.56027 6.21995C1.53027 6.23995 1.51027 6.25995 1.49027 6.27995C1.49027 6.22995 1.49027 6.17995 1.51027 6.12995C1.51027 6.09995 1.53027 6.06995 1.54027 6.03995C1.54027 6.03995 1.55027 6.01995 1.56027 6.00995C1.59027 6.06995 1.64027 6.11995 1.69027 6.14995V6.15995ZM0.530273 12.1199C0.530273 12.1199 0.510273 12.1299 0.510273 12.1399C0.510273 12.1399 0.530273 12.1199 0.540273 12.1199H0.530273ZM0.550273 12.0299C0.550273 12.0299 0.550273 12.0199 0.550273 12.0099C0.550273 12.0099 0.550273 12.0199 0.550273 12.0299ZM0.900273 12.3399C0.840273 12.2999 0.780273 12.2499 0.720273 12.1999C0.680273 12.1599 0.630273 12.1199 0.590273 12.0799C0.600273 12.0799 0.620273 12.0599 0.630273 12.0499C0.660273 12.0299 0.680273 12.0099 0.710273 11.9899C0.710273 11.9899 0.710273 11.9999 0.710273 12.0099C0.710273 12.0499 0.740273 12.0999 0.780273 12.1299C0.810273 12.1499 0.830274 12.1599 0.860273 12.1599C0.860273 12.1899 0.860273 12.2299 0.880273 12.2499C0.900273 12.2899 0.920273 12.3099 0.950273 12.3399C0.980273 12.3599 1.01027 12.3799 1.04027 12.3899C1.05027 12.3899 1.07027 12.3999 1.09027 12.4099C1.03027 12.3899 0.970273 12.3599 0.910273 12.3299L0.900273 12.3399ZM1.24027 14.1799C1.24027 14.1799 1.23027 14.1799 1.22027 14.1799C1.22027 14.1799 1.22027 14.1799 1.22027 14.1699C1.23027 14.1699 1.24027 14.1799 1.25027 14.1899C1.25027 14.1899 1.24027 14.1899 1.23027 14.1899L1.24027 14.1799ZM7.25027 18.1299C7.25027 18.1299 7.23027 18.1299 7.22027 18.1199C7.22027 18.0999 7.22027 18.0799 7.22027 18.0699C7.23027 18.0699 7.24027 18.0499 7.25027 18.0499C7.27027 18.0299 7.29027 18.0099 7.31027 17.9999C7.31027 18.0199 7.32027 18.0399 7.33027 18.0699C7.31027 18.0899 7.28027 18.1199 7.26027 18.1399L7.25027 18.1299ZM4.18027 4.43995C4.18027 4.43995 4.18027 4.40995 4.17027 4.39995C4.17027 4.41995 4.19027 4.44995 4.19027 4.46995C4.19027 4.48995 4.20027 4.50995 4.21027 4.52995C4.15027 4.48995 4.08027 4.45995 4.02027 4.41995C4.06027 4.35995 4.08027 4.29995 4.10027 4.22995C4.10027 4.22995 4.10027 4.21995 4.10027 4.20995C4.13027 4.28995 4.16027 4.35995 4.18027 4.43995ZM3.05027 5.05995C3.05027 5.05995 3.13027 5.10995 3.17027 5.13995C3.17027 5.13995 3.10027 5.08995 3.06027 5.05995H3.05027ZM3.26027 4.63995C3.26027 4.63995 3.32027 4.66995 3.35027 4.68995C3.40027 4.71995 3.46027 4.75995 3.51027 4.78995C3.63027 4.85995 3.75027 4.92995 3.87027 4.99995C4.07027 5.10995 4.27027 5.21995 4.47027 5.31995C4.49027 5.33995 4.52027 5.34995 4.55027 5.35995C4.57027 5.36995 4.60027 5.38995 4.62027 5.39995C4.71027 5.44995 4.81027 5.49995 4.90027 5.54995C4.90027 5.54995 4.89027 5.54995 4.88027 5.54995C4.86027 5.54995 4.85027 5.57995 4.83027 5.58995C4.61027 5.43995 4.38027 5.30995 4.14027 5.17995C3.99027 5.09995 3.85027 5.01995 3.70027 4.94995C3.64027 4.91995 3.58027 4.87995 3.52027 4.84995C3.43027 4.77995 3.35027 4.71995 3.26027 4.64995V4.63995ZM9.89027 2.36995C9.89027 2.36995 9.89027 2.36995 9.89027 2.37995C9.89027 2.37995 9.89027 2.37995 9.88027 2.37995C9.88027 2.37995 9.88027 2.36995 9.88027 2.35995C9.88027 2.35995 9.88027 2.35995 9.89027 2.35995V2.36995ZM9.83027 5.77995C9.83027 5.77995 9.83027 5.82995 9.83027 5.85995C9.83027 5.83995 9.83027 5.80995 9.82027 5.78995C9.82027 5.78995 9.82027 5.78995 9.83027 5.78995V5.77995ZM9.18027 6.17995C9.18027 5.90995 9.18027 5.62995 9.18027 5.35995C9.18027 5.25995 9.18027 5.14995 9.19027 5.04995C9.19027 5.03995 9.19027 5.02995 9.19027 5.01995C9.19027 5.01995 9.19027 5.02995 9.19027 5.03995C9.19027 5.03995 9.19027 5.04995 9.20027 5.05995C9.22027 5.29995 9.24027 5.52995 9.25027 5.76995C9.26027 5.95995 9.27027 6.15995 9.27027 6.34995C9.23027 6.32995 9.19027 6.32995 9.15027 6.33995C9.15027 6.28995 9.15027 6.24995 9.15027 6.19995L9.18027 6.17995ZM15.3603 5.66995C15.3603 5.66995 15.3603 5.66995 15.3703 5.66995H15.3603ZM8.70027 8.17995C8.62027 8.11995 8.53027 8.05995 8.45027 7.98995C8.50027 8.01995 8.57027 8.03995 8.63027 8.01995H8.65027C8.67027 8.01995 8.68027 8.02995 8.70027 8.03995C8.69027 8.07995 8.69027 8.10995 8.69027 8.14995C8.69027 8.15995 8.69027 8.16995 8.70027 8.18995V8.17995ZM7.98027 7.89995C7.98027 7.89995 8.08027 7.94995 8.14027 7.95995C8.14027 7.95995 8.13027 7.97995 8.12027 7.98995C8.07027 7.95995 8.02027 7.92995 7.97027 7.88995C7.97027 7.88995 7.97027 7.88995 7.98027 7.88995V7.89995ZM8.32027 7.90995C8.32027 7.90995 8.32027 7.90995 8.33027 7.91995C8.33027 7.91995 8.33027 7.91995 8.34027 7.91995C8.34027 7.91995 8.32027 7.90995 8.31027 7.90995H8.32027ZM4.85027 6.01995C4.85027 6.01995 4.86027 6.01995 4.87027 6.02995C4.86027 6.02995 4.85027 6.01995 4.84027 6.00995L4.85027 6.01995ZM5.38027 6.50995C5.38027 6.50995 5.39027 6.50995 5.40027 6.51995C5.40027 6.51995 5.39027 6.51995 5.38027 6.51995V6.50995ZM6.77027 7.46995C6.98027 7.61995 7.19027 7.76995 7.40027 7.91995C7.55027 8.01995 7.69027 8.11995 7.84027 8.21995C7.97027 8.30995 8.11027 8.38995 8.25027 8.47995C8.41027 8.57995 8.58027 8.66995 8.74027 8.75995C8.74027 8.78995 8.74027 8.80995 8.74027 8.83995C8.38027 8.61995 8.03027 8.38995 7.66027 8.17995C7.38027 8.01995 7.11027 7.84995 6.84027 7.66995C6.79027 7.62995 6.73027 7.59995 6.68027 7.55995C6.72027 7.54995 6.76027 7.50995 6.78027 7.47995L6.77027 7.46995ZM9.37027 15.7999C9.37027 15.7999 9.37027 15.7899 9.37027 15.7799C9.37027 15.4699 9.39027 15.1699 9.39027 14.8599C9.39027 14.5599 9.39027 14.2499 9.39027 13.9499C9.39027 13.5999 9.39027 13.2399 9.39027 12.8899C9.39027 12.8199 9.39027 12.7499 9.39027 12.6799C9.39027 13.0199 9.40027 13.3699 9.42027 13.7099C9.42027 13.8899 9.44027 14.0599 9.44027 14.2399C9.43027 14.7699 9.42027 15.2999 9.41027 15.8299C9.41027 15.8299 9.39027 15.8099 9.38027 15.8099L9.37027 15.7999ZM12.6203 11.3199C12.6203 11.3199 12.6303 11.3199 12.6403 11.3099C12.6403 11.3099 12.6503 11.3099 12.6603 11.3199C12.7703 11.3899 12.8703 11.4599 12.9803 11.5299C12.9803 11.5399 12.9803 11.5499 12.9803 11.5699C12.8603 11.4899 12.7403 11.3999 12.6203 11.3199ZM14.8003 6.41995C14.9203 6.33995 15.0403 6.24995 15.1603 6.16995C15.2003 6.19995 15.2503 6.18995 15.3003 6.18995C15.3303 6.18995 15.3603 6.18995 15.3903 6.16995C15.3603 6.18995 15.3303 6.20995 15.3003 6.22995C15.1603 6.28995 15.0303 6.34995 14.8903 6.40995C14.8903 6.40995 14.9003 6.40995 14.9103 6.40995C14.8203 6.44995 14.7303 6.48995 14.6303 6.52995C14.6903 6.49995 14.7503 6.45995 14.8103 6.41995H14.8003ZM8.56027 7.64995C8.56027 7.64995 8.56027 7.64995 8.57027 7.64995H8.56027ZM2.74027 4.97995C2.74027 4.97995 2.74027 4.97995 2.75027 4.97995H2.74027ZM9.99027 10.3399C9.99027 10.5099 9.99027 10.6899 9.99027 10.8599C9.99027 11.3499 9.99027 11.8399 9.99027 12.3299C9.99027 12.5399 9.99027 12.7399 9.99027 12.9499C9.99027 13.1599 9.99027 13.3699 9.99027 13.5799C9.99027 13.8699 9.99027 14.1599 9.99027 14.4399C9.99027 14.6599 9.99027 14.8699 9.99027 15.0899C9.99027 15.1199 9.99027 15.1399 9.99027 15.1699C9.99027 15.1399 9.98027 15.1099 9.97027 15.0699C9.95027 14.8199 9.94027 14.5699 9.93027 14.3199C9.92027 14.0199 9.89027 13.7199 9.88027 13.4199C9.88027 13.2099 9.88027 12.9899 9.88027 12.7799C9.88027 12.4899 9.88027 12.1999 9.90027 11.9099C9.92027 11.6899 9.92027 11.4699 9.92027 11.2399C9.92027 11.1099 9.92027 10.9899 9.93027 10.8599C9.93027 10.7799 9.94027 10.6999 9.95027 10.6199C9.95027 10.5099 9.95027 10.3999 9.95027 10.2799C9.97027 10.2899 9.99027 10.3099 10.0103 10.3199L9.99027 10.3399ZM14.2903 12.4299C14.3503 12.4599 14.4103 12.4899 14.4703 12.5299C14.7703 12.7299 15.0603 12.9299 15.3603 13.1299C15.4503 13.1899 15.5403 13.2399 15.6403 13.2999C15.8203 13.4199 16.0103 13.5399 16.2003 13.6599C16.2003 13.6599 16.2503 13.6999 16.2703 13.7199C16.2703 13.7399 16.2703 13.7499 16.2703 13.7699C16.2103 13.7299 16.1403 13.6999 16.0803 13.6599C16.0803 13.6599 16.0903 13.6599 16.1003 13.6799C16.1003 13.6799 16.0803 13.6699 16.0703 13.6599C16.0703 13.6599 16.0703 13.6599 16.0603 13.6599C16.0503 13.6599 16.0303 13.6399 16.0203 13.6299C15.9803 13.5999 15.9403 13.5699 15.9103 13.5399C15.8503 13.4999 15.7803 13.4499 15.7203 13.4099C15.5603 13.3099 15.4103 13.1999 15.2503 13.0999C15.0403 12.9599 14.8203 12.8199 14.6003 12.6899C14.3903 12.5599 14.1803 12.4199 13.9803 12.2799C14.0803 12.3299 14.1803 12.3799 14.2803 12.4399L14.2903 12.4299ZM16.4903 13.0599C16.4903 13.0599 16.4903 13.0599 16.5003 13.0699C16.5003 13.0699 16.4903 13.0699 16.4803 13.0599H16.4903ZM16.0703 12.7799C16.1203 12.7999 16.1703 12.8299 16.2203 12.8699C16.2203 12.8799 16.2203 12.8899 16.2203 12.8999C16.1203 12.8399 16.0303 12.7799 15.9303 12.7299C15.9303 12.7299 15.9203 12.7299 15.9103 12.7299C15.9603 12.7499 16.0103 12.7699 16.0703 12.7899V12.7799ZM15.4503 12.3899C15.5003 12.4199 15.5603 12.4599 15.6203 12.4899V12.5099C15.5503 12.4599 15.4903 12.4099 15.4203 12.3699C15.4303 12.3699 15.4403 12.3799 15.4503 12.3899ZM15.0003 11.9799C15.0003 11.9799 14.9903 12.0399 15.0003 12.0599C14.8603 11.9599 14.7203 11.8599 14.5803 11.7599C14.5803 11.7299 14.5803 11.7099 14.5803 11.6799C14.6203 11.7099 14.6703 11.7399 14.7103 11.7699C14.8103 11.8399 14.9103 11.9099 15.0103 11.9799H15.0003ZM12.0303 9.92995C12.0303 9.92995 11.9603 9.92995 11.9303 9.92995C11.9003 9.90995 11.8603 9.87995 11.8303 9.85995C11.6103 9.69995 11.3803 9.53995 11.1603 9.38995C11.1703 9.38995 11.1803 9.37995 11.1903 9.36995C11.4003 9.50995 11.6203 9.63995 11.8303 9.77995C11.9003 9.81995 11.9603 9.86995 12.0303 9.90995V9.92995ZM18.0303 7.36995C18.0303 7.36995 18.0103 7.31995 18.0003 7.29995C18.0303 7.30995 18.0503 7.32995 18.0803 7.33995C18.0903 7.33995 18.1103 7.34995 18.1203 7.35995C18.0903 7.35995 18.0603 7.36995 18.0303 7.36995ZM17.2803 6.22995C17.4103 6.31995 17.5403 6.41995 17.6603 6.50995C17.8303 6.63995 18.0003 6.74995 18.1703 6.88995C18.2303 6.94995 18.2903 7.00995 18.3503 7.06995C18.3303 7.05995 18.3003 7.03995 18.2803 7.02995C18.2503 7.01995 18.2303 6.99995 18.2003 6.97995C18.0703 6.90995 17.9503 6.82995 17.8303 6.74995C17.5203 6.54995 17.2403 6.32995 16.9603 6.09995C16.9903 6.08995 17.0103 6.06995 17.0403 6.05995C17.1203 6.10995 17.2103 6.15995 17.2903 6.21995L17.2803 6.22995ZM17.7203 4.66995C17.7203 4.66995 17.7403 4.66995 17.7503 4.66995C17.7503 4.66995 17.7703 4.66995 17.7703 4.67995C17.7703 4.67995 17.7703 4.67995 17.7803 4.68995C17.7803 4.68995 17.7803 4.69995 17.7803 4.70995C17.7803 4.70995 17.7803 4.72995 17.7803 4.73995C17.7403 4.70995 17.7103 4.69995 17.6603 4.69995C17.6403 4.69995 17.6103 4.69995 17.5903 4.70995C17.5703 4.69995 17.5303 4.68995 17.5103 4.68995C17.5403 4.68995 17.5703 4.66995 17.6003 4.66995C17.6303 4.66995 17.6603 4.66995 17.7003 4.66995H17.7203ZM17.2603 4.75995C17.2603 4.75995 17.2203 4.77995 17.2003 4.78995C17.2003 4.78995 17.2003 4.78995 17.1903 4.78995C17.2203 4.78995 17.2403 4.76995 17.2603 4.75995ZM15.8603 3.10995C15.8603 3.10995 15.8603 3.08995 15.8603 3.06995C15.8603 3.06995 15.8703 3.06995 15.8803 3.06995C15.9003 3.13995 15.9203 3.20995 15.9503 3.27995C15.9603 3.31995 15.9803 3.34995 15.9903 3.38995C16.0003 3.46995 16.0103 3.53995 16.0103 3.61995C16.0103 3.67995 16.0203 3.73995 16.0303 3.79995C16.0203 3.78995 16.0103 3.76995 15.9903 3.75995C15.9503 3.72995 15.9103 3.71995 15.8603 3.72995C15.8603 3.72995 15.8603 3.72995 15.8503 3.72995C15.8503 3.66995 15.8503 3.61995 15.8603 3.55995C15.8603 3.48995 15.8603 3.42995 15.8703 3.35995C15.8703 3.26995 15.8703 3.18995 15.8703 3.10995H15.8603ZM14.1603 6.32995C14.2903 6.25995 14.4303 6.18995 14.5703 6.11995C14.6103 6.09995 14.6403 6.08995 14.6803 6.06995C14.6003 6.12995 14.5203 6.17995 14.4303 6.22995C14.3203 6.28995 14.2003 6.33995 14.0903 6.38995C14.0303 6.41995 13.9703 6.43995 13.9103 6.46995C13.9903 6.41995 14.0703 6.36995 14.1503 6.32995H14.1603ZM9.83027 1.15995V1.13995C9.83027 1.13995 9.83027 1.14995 9.83027 1.15995ZM6.37027 6.26995C6.37027 6.26995 6.33027 6.26995 6.32027 6.28995C6.31027 6.29995 6.29027 6.31995 6.29027 6.34995C6.13027 6.24995 5.97027 6.15995 5.81027 6.05995C5.67027 5.97995 5.54027 5.88995 5.41027 5.79995C5.48027 5.83995 5.55027 5.86995 5.63027 5.90995C5.67027 5.92995 5.71027 5.94995 5.75027 5.96995C5.76027 5.96995 5.78027 5.96995 5.79027 5.96995C5.87027 6.01995 5.95027 6.06995 6.03027 6.11995C6.07027 6.14995 6.12027 6.13995 6.17027 6.11995C6.22027 6.14995 6.28027 6.17995 6.33027 6.20995C6.35027 6.21995 6.37027 6.23995 6.39027 6.24995L6.37027 6.26995ZM4.91027 4.90995C4.91027 4.90995 4.91027 4.92995 4.92027 4.94995C4.92027 4.96995 4.93027 4.98995 4.94027 5.00995C4.88027 4.96995 4.82027 4.91995 4.75027 4.87995C4.75027 4.80995 4.75027 4.72995 4.75027 4.65995C4.75027 4.59995 4.75027 4.54995 4.75027 4.48995C4.81027 4.63995 4.86027 4.77995 4.91027 4.92995C4.91027 4.92995 4.91027 4.91995 4.91027 4.90995ZM4.70027 3.31995C4.70027 3.31995 4.70027 3.31995 4.70027 3.30995C4.73027 3.39995 4.76027 3.49995 4.79027 3.58995C4.77027 3.53995 4.76027 3.49995 4.74027 3.44995C4.68027 3.27995 4.62027 3.11995 4.56027 2.94995C4.61027 3.06995 4.66027 3.18995 4.70027 3.30995V3.31995ZM4.33027 3.33995C4.33027 3.33995 4.33027 3.31995 4.33027 3.30995C4.33027 3.30995 4.33027 3.30995 4.33027 3.29995C4.33027 3.30995 4.33027 3.31995 4.34027 3.32995L4.33027 3.33995ZM3.81027 2.57995C3.81027 2.57995 3.86027 2.48995 3.88027 2.44995C3.90027 2.40995 3.92027 2.36995 3.95027 2.32995C3.95027 2.32995 3.96027 2.31995 3.97027 2.30995C3.99027 2.30995 4.00027 2.28995 4.02027 2.28995C4.03027 2.28995 4.04027 2.28995 4.05027 2.28995C4.05027 2.28995 4.06027 2.28995 4.07027 2.28995C4.08027 2.28995 4.09027 2.28995 4.11027 2.29995C4.13027 2.30995 4.15027 2.31995 4.17027 2.33995C4.20027 2.36995 4.23027 2.38995 4.25027 2.41995C4.21027 2.40995 4.17027 2.40995 4.13027 2.41995C4.06027 2.42995 4.00027 2.48995 3.96027 2.53995C3.93027 2.57995 3.92027 2.62995 3.91027 2.67995C3.90027 2.66995 3.88027 2.64995 3.86027 2.63995C3.84027 2.63995 3.82027 2.61995 3.80027 2.61995C3.80027 2.61995 3.80027 2.60995 3.80027 2.59995L3.81027 2.57995ZM2.25027 4.36995C2.25027 4.36995 2.25027 4.36995 2.25027 4.35995C2.25027 4.35995 2.25027 4.35995 2.25027 4.36995ZM2.32027 4.21995C2.32027 4.21995 2.32027 4.22995 2.32027 4.23995V4.22995V4.21995ZM1.95027 5.92995C1.95027 5.92995 1.95027 5.92995 1.94027 5.92995H1.95027ZM2.77027 5.75995C2.77027 5.75995 2.75027 5.75995 2.73027 5.75995C2.60027 5.78995 2.46027 5.82995 2.33027 5.85995C2.25027 5.87995 2.17027 5.89995 2.09027 5.92995C2.05027 5.92995 2.01027 5.90995 1.97027 5.89995C1.97027 5.89995 2.00027 5.89995 2.01027 5.90995C2.00027 5.90995 1.98027 5.90995 1.97027 5.89995C2.04027 5.85995 2.11027 5.82995 2.18027 5.78995C2.26027 5.74995 2.33027 5.71995 2.41027 5.69995C2.41027 5.69995 2.41027 5.69995 2.40027 5.69995C2.40027 5.69995 2.42027 5.69995 2.43027 5.69995C2.43027 5.69995 2.43027 5.69995 2.44027 5.69995C2.60027 5.65995 2.77027 5.61995 2.93027 5.58995C2.94027 5.58995 2.96027 5.58995 2.97027 5.58995C3.01027 5.61995 3.06027 5.64995 3.10027 5.66995C3.04027 5.68995 2.98027 5.69995 2.92027 5.71995C2.86027 5.72995 2.81027 5.74995 2.75027 5.75995H2.77027ZM3.31027 6.61995C3.22027 6.63995 3.14027 6.64995 3.05027 6.65995C3.02027 6.65995 2.98027 6.65995 2.95027 6.65995C2.97027 6.65995 3.00027 6.65995 3.02027 6.65995C3.14027 6.64995 3.26027 6.63995 3.38027 6.62995C3.36027 6.62995 3.34027 6.62995 3.32027 6.63995L3.31027 6.61995ZM2.59027 12.4399C2.55027 12.4399 2.51027 12.4399 2.47027 12.4299C2.51027 12.4299 2.55027 12.4299 2.60027 12.4399H2.59027ZM2.13027 13.9199C1.97027 13.9899 1.81027 14.0499 1.65027 14.1099C1.62027 14.1199 1.59027 14.1299 1.56027 14.1399C1.62027 14.1099 1.68027 14.0799 1.74027 14.0599C2.00027 13.9399 2.25027 13.8099 2.50027 13.6799C2.52027 13.6799 2.53027 13.6599 2.55027 13.6599C2.55027 13.6699 2.55027 13.6899 2.57027 13.6999C2.43027 13.7899 2.28027 13.8699 2.13027 13.9399V13.9199ZM3.61027 14.3299C3.61027 14.3299 3.63027 14.2599 3.63027 14.2199C3.71027 13.9399 3.79027 13.6699 3.88027 13.3899C3.88027 13.4099 3.88027 13.4399 3.90027 13.4499C3.90027 13.4499 3.91027 13.4499 3.92027 13.4499C3.92027 13.4699 3.92027 13.4899 3.91027 13.4999C3.91027 13.4999 3.91027 13.4999 3.91027 13.4899C3.86027 13.6799 3.81027 13.8599 3.75027 14.0499C3.70027 14.2099 3.63027 14.3699 3.56027 14.5299C3.57027 14.4599 3.59027 14.3899 3.60027 14.3199L3.61027 14.3299ZM3.93027 14.6299C3.90027 14.7299 3.87027 14.8299 3.83027 14.9299C3.79027 15.0299 3.74027 15.1299 3.68027 15.2299C3.68027 15.2399 3.67027 15.2499 3.66027 15.2699C3.75027 15.0499 3.84027 14.8199 3.94027 14.5999C3.94027 14.5999 3.94027 14.5799 3.95027 14.5699C3.95027 14.5899 3.95027 14.6099 3.93027 14.6299ZM4.18027 13.4799V13.4999C4.18027 13.4999 4.18027 13.4799 4.18027 13.4699V13.4799ZM4.61027 12.7799C4.61027 12.7599 4.61027 12.7299 4.61027 12.7099C4.77027 12.6199 4.93027 12.5299 5.08027 12.4399C5.21027 12.3599 5.35027 12.2799 5.49027 12.2099C5.45027 12.2399 5.40027 12.2599 5.36027 12.2899C5.11027 12.4499 4.87027 12.6199 4.62027 12.7799H4.61027ZM8.37027 17.2899C8.30027 17.3599 8.23027 17.4299 8.15027 17.4999C8.07027 17.5699 7.97027 17.6299 7.88027 17.6799H7.86027C7.84027 17.6799 7.83027 17.6999 7.82027 17.7099C7.93027 17.5499 8.05027 17.3999 8.17027 17.2399C8.29027 17.0799 8.41027 16.9299 8.54027 16.7799V16.8699C8.54027 16.8699 8.56027 16.9199 8.57027 16.9499C8.57027 16.9899 8.57027 17.0299 8.57027 17.0599C8.50027 17.1399 8.43027 17.2099 8.35027 17.2799L8.37027 17.2899ZM9.69027 17.7799C9.68027 17.8399 9.66027 17.8999 9.65027 17.9599C9.63027 18.0299 9.62027 18.1099 9.61027 18.1799C9.61027 18.2199 9.59027 18.2499 9.58027 18.2899C9.57027 18.2299 9.56027 18.1599 9.55027 18.0999C9.53027 17.9499 9.51027 17.7899 9.50027 17.6399C9.56027 17.6499 9.63027 17.6399 9.67027 17.6099C9.68027 17.5999 9.69027 17.5799 9.70027 17.5699C9.70027 17.5699 9.70027 17.5699 9.71027 17.5699C9.71027 17.6399 9.71027 17.7099 9.69027 17.7699V17.7799ZM14.1203 12.8199C14.0603 12.7799 14.0003 12.7499 13.9503 12.7099C13.9503 12.6999 13.9503 12.6899 13.9503 12.6699C13.9703 12.6899 13.9903 12.6999 14.0203 12.7199C14.2103 12.8499 14.4103 12.9699 14.6003 13.0899C14.6803 13.1399 14.7603 13.1899 14.8403 13.2499C14.8403 13.2499 14.8403 13.2599 14.8403 13.2699C14.8403 13.2799 14.8403 13.2999 14.8403 13.3099C14.8403 13.3099 14.8203 13.2999 14.8203 13.2899C14.5903 13.1299 14.3603 12.9699 14.1203 12.8199ZM15.7103 13.8199C15.7503 13.8399 15.7903 13.8699 15.8303 13.8899C15.8303 13.9299 15.8303 13.9799 15.8303 14.0199C15.8303 14.0899 15.8303 14.1599 15.8303 14.2299C15.7803 14.0899 15.7303 13.9399 15.6803 13.7999L15.7103 13.8199ZM16.1103 15.6899C16.1103 15.6899 16.1103 15.6699 16.1003 15.6599C16.1003 15.6599 16.1103 15.6599 16.1203 15.6499C16.1203 15.6599 16.1203 15.6799 16.1203 15.6899H16.1103ZM16.1203 14.5999C16.1203 14.5999 16.1203 14.5999 16.1203 14.6099C16.1203 14.6099 16.1203 14.6099 16.1203 14.6199C16.1203 14.6199 16.1203 14.6099 16.1203 14.5999ZM17.7503 12.2699C17.7503 12.2699 17.7103 12.2899 17.6903 12.2899C17.7203 12.2699 17.7503 12.2599 17.7703 12.2399C17.8103 12.2099 17.8603 12.1899 17.9003 12.1599C17.9403 12.1599 17.9803 12.1599 18.0203 12.1599C17.9303 12.1999 17.8403 12.2399 17.7503 12.2799V12.2699ZM18.4403 11.8399C18.4403 11.8399 18.4403 11.8599 18.4303 11.8799C18.4303 11.8799 18.4203 11.8799 18.4103 11.8799C18.4003 11.8799 18.3903 11.8599 18.3703 11.8599C18.3303 11.8499 18.2903 11.8399 18.2503 11.8299C18.2103 11.8299 18.1603 11.8299 18.1203 11.8299C18.0803 11.8299 18.0303 11.8299 17.9903 11.8299C17.9603 11.8299 17.9403 11.8299 17.9103 11.8299C17.8703 11.8099 17.8203 11.8099 17.7603 11.8099C17.5703 11.8099 17.3803 11.8299 17.2003 11.8599C17.4603 11.7999 17.7303 11.7899 17.9903 11.7899C18.1403 11.7899 18.2903 11.8099 18.4403 11.8399Z" fill="#4DCDEC"/>
</g>
<defs>
<clipPath id="clip0_3237_2077">
<rect width="18.6" height="19.02" fill="white" transform="translate(0.200195)"/>
</clipPath>
</defs>
</svg>
